<?xml version="1.0" encoding="UTF-8"?>
<svg version="1.1" xmlns="http://www.w3.org/2000/svg" width="816" height="151">
<path d="M0 0 C269.28 0 538.56 0 816 0 C816 49.83 816 99.66 816 151 C546.72 151 277.44 151 0 151 C0 101.17 0 51.34 0 0 Z " fill="#F9DE94" transform="translate(0,0)"/>
<path d="M0 0 C269.28 0 538.56 0 816 0 C816 49.83 816 99.66 816 151 C546.72 151 277.44 151 0 151 C0 101.17 0 51.34 0 0 Z M80 29 C77.99354936 28.70799494 75.9940818 28.36708157 74 28 C60.89730384 27.24295533 49.4971887 28.55772589 39 37 C30.02504917 46.82825685 26.67517174 57.53876879 26.69140625 70.65625 C27.1339142 75.45101974 28.63633002 79.69688006 30.3203125 84.1875 C31 87 31 87 30.31640625 89.19140625 C28.96036234 91.05445768 27.55898114 92.43992353 25.8125 93.9375 C24.20596521 95.41777335 24.20596521 95.41777335 23 97 C23 100.62333737 23.96996065 101.95494097 26 105 C28.2687261 106.05411355 28.2687261 106.05411355 30.875 106.75 C31.73867188 107.01296875 32.60234375 107.2759375 33.4921875 107.546875 C36.16936072 108.030601 37.41953693 107.68650055 40 107 C42.08674954 107.08379435 44.17149066 107.23416756 46.25 107.4375 C47.32765625 107.53933594 48.4053125 107.64117187 49.515625 107.74609375 C50.74539062 107.87177734 50.74539062 107.87177734 52 108 C52 109.32 52 110.64 52 112 C59.2385335 115.23540512 65.22859609 115.09141544 73 114 C73.01417969 115.02480469 73.02835938 116.04960938 73.04296875 117.10546875 C73.08989016 118.46618971 73.13813744 119.82686541 73.1875 121.1875 C73.19330078 121.86103516 73.19910156 122.53457031 73.20507812 123.22851562 C73.38194406 127.25712856 73.89806439 128.88058079 76.55078125 131.98828125 C77.76314453 132.98408203 77.76314453 132.98408203 79 134 C82.89622891 131.82536061 85.15674579 130.08647925 87.375 126.1875 C90.25857549 121.42915407 92.80461399 117.38213198 98 115 C103.30608369 114.26627511 108.63903331 114.68224355 113.96582031 114.97143555 C116.71361624 115.01002078 119.30172746 114.4853833 122 114 C124.5 114.12109375 124.5 114.12109375 127 114.4375 C138.1735301 115.73619158 138.1735301 115.73619158 149.19921875 114.39453125 C151 114 151 114 154.375 115.5625 C157.80510365 117.38418306 157.80510365 117.38418306 160.53515625 116.09375 C165.40772709 114.55562166 169.98959313 114.82700104 175.0625 114.9375 C177.01164172 114.97210015 178.96086961 115.0022002 180.91015625 115.02734375 C181.76746338 115.04531006 182.62477051 115.06327637 183.50805664 115.08178711 C186.10643206 114.99650683 188.45927804 114.52756727 191 114 C192.98280713 114.08272816 194.96366411 114.23173332 196.9375 114.4375 C203.5117974 115.10765419 208.74133782 115.38425226 215 113 C215.99 118.445 215.99 118.445 217 124 C217.99 124 218.98 124 220 124 C220.33 125.98 220.66 127.96 221 130 C224.21880999 128.93645447 225.00525863 127.99095328 226.74609375 124.99609375 C227.87422867 122.62258125 228.99922768 120.24757571 230.12109375 117.87109375 C232 115 232 115 234.53515625 114.03515625 C237.9325854 113.98669847 239.55396799 114.56790649 242 116.9375 C242.66 117.618125 243.32 118.29875 244 119 C246.91765 120.9451 248.62537285 121.45276317 252 122 C252 122.66 252 123.32 252 124 C264.34671368 128.23364089 272.26214438 128.27525903 284.375 122.625 C287.33454531 121.08190902 289.59252312 119.54583857 291.9375 117.1875 C295.91442547 114.34683895 298.3041838 114.84475119 303.04296875 115.078125 C308.46264208 114.9349368 314.63850198 113.1660637 318.69921875 109.44140625 C319.12847656 108.96574219 319.55773437 108.49007812 320 108 C322.68119785 106.15089803 323.81368063 105.98509445 327.125 106.25 C330 107 330 107 332 109 C333.98248715 109.71706982 335.98415349 110.38290413 338 111 C338.99 111.33 339.98 111.66 341 112 C341 112.66 341 113.32 341 114 C344.19665162 115.59832581 347.52107805 115.38175781 351 115 C352.3302253 114.50345224 353.6440912 113.96079236 354.9375 113.375 C358.94171825 111.71433584 361.35533148 112.24370127 365.44921875 113.375 C372.96386468 115.21626087 380.40258121 115.54072894 387.85546875 113.48046875 C391.57230828 112.64773421 395.20749676 112.87960307 399 113 C399 113.66 399 114.32 399 115 C399.7520874 114.99476318 400.5041748 114.98952637 401.27905273 114.98413086 C404.66519342 114.96342773 408.05132084 114.95036123 411.4375 114.9375 C412.62150391 114.92912109 413.80550781 114.92074219 415.02539062 114.91210938 C416.15009766 114.90888672 417.27480469 114.90566406 418.43359375 114.90234375 C419.47572021 114.89710693 420.51784668 114.89187012 421.59155273 114.88647461 C424 115 424 115 425 116 C430.83995256 117.33239838 430.83995256 117.33239838 436 115 C438.01734015 114.74382982 440.03540583 114.4900832 442.05859375 114.28515625 C444.32953842 113.95159697 446.0573065 113.21418344 448 112 C447.67 113.98 447.34 115.96 447 118 C448.69495956 119.66846734 448.69495956 119.66846734 451 121 C454.96990261 120.64438983 456.95432383 119.41513021 459.9375 116.875 C465.21733358 113.15170027 469.56074464 113.87350955 475.76171875 114.6328125 C479.36927237 115.04187166 482.44122196 114.65365311 486 114 C491.35409813 113.80170007 496.71505283 114.08137184 502 115 C503.96822886 116.96822886 503.66248381 120.34808709 504 123 C504.66 123 505.32 123 506 123 C506.33 124.98 506.66 126.96 507 129 C508.73575649 129.87436418 508.73575649 129.87436418 511 130 C515.62276798 127.39228473 517.55413133 123.59743628 519.88671875 119.0234375 C521 117 521 117 523 115 C525.72265625 114.83984375 525.72265625 114.83984375 529.0625 114.9375 C533.05148484 115.00779048 536.86090396 114.99017077 540.8125 114.4375 C545.08347254 113.87532446 548.73961313 114.38155674 553 115 C558.1981344 115.27358602 562.1158093 114.59483778 567 113 C567.33 114.32 567.66 115.64 568 117 C568.33425735 114.62625139 568.33425735 114.62625139 568 112 C566.0995533 110.15684329 566.0995533 110.15684329 564 109 C566.475 109.495 566.475 109.495 569 110 C568.94779297 111.28970703 568.94779297 111.28970703 568.89453125 112.60546875 C568.69790719 121.19138597 569.69345295 128.73487309 572 137 C572.66 137 573.32 137 574 137 C573.896875 137.763125 573.79375 138.52625 573.6875 139.3125 C573.8421875 140.6428125 573.8421875 140.6428125 574 142 C576.40858714 143.8624438 576.40858714 143.8624438 579 145 C583.0496698 141.9187295 585.53449869 140.00712946 587 135 C588.26635321 130.94766972 589.68888633 127.57172112 592 124 C596.8 127.32307692 596.8 127.32307692 597.8125 130.75 C597.874375 131.4925 597.93625 132.235 598 133 C598.66 133 599.32 133 600 133 C600 133.99 600 134.98 600 136 C601.72476911 136.95502158 601.72476911 136.95502158 604 137 C607.32926493 134.2901332 609.33394409 132.26275783 610 128 C610.6590841 126.33032028 611.32650839 124.66392045 612 123 C612.268125 121.948125 612.53625 120.89625 612.8125 119.8125 C614 117 614 117 616 115.625 C619.5669659 114.8818821 622.86820684 114.89682618 626.5 115.02734375 C629.0016875 115.08515038 629.0016875 115.08515038 631.39453125 114.47265625 C634.62362657 113.88686834 637.42440887 114.17844119 640.6875 114.5 C647.57510296 115.06313735 654.02689413 114.99327647 660.75 113.3125 C663 113 663 113 665.6875 113.9375 C668.83970198 114.94858365 670.75229192 115.08277517 674 115 C678.06939047 114.91407019 681.24077072 115.2649711 685 117 C685.33 117.66 685.66 118.32 686 119 C686.99 119 687.98 119 689 119 C689 119.66 689 120.32 689 121 C690.6396875 121.185625 690.6396875 121.185625 692.3125 121.375 C696 122 696 122 699 124 C701.91862859 124.22428583 704.70739129 124.33253812 707.625 124.3125 C708.8457019 124.30621582 708.8457019 124.30621582 710.09106445 124.29980469 C715.84651678 124.19137448 720.80220206 123.63236119 726 121 C726.64195312 120.67515625 727.28390625 120.3503125 727.9453125 120.015625 C730.41036479 118.67480158 732.67011268 117.29775573 734.75708008 115.4140625 C737.88362752 113.44291166 740.3970544 113.51768402 744.07421875 113.375 C744.75748734 113.34196777 745.44075592 113.30893555 746.14472961 113.27490234 C748.32530039 113.17003839 750.50599342 113.08296719 752.6875 113 C768.75218298 112.87273095 768.75218298 112.87273095 782.71875 105.85546875 C785.72107349 101.50759175 786.73863847 96.0648517 788 91 C788.17705978 90.35717575 788.35411957 89.7143515 788.5365448 89.05204773 C789.32771349 85.54897793 789.20543227 81.97072585 789.23828125 78.39453125 C789.246353 77.55589035 789.25442474 76.71724945 789.26274109 75.85319519 C789.27655353 74.0788274 789.28728835 72.30443336 789.29516602 70.5300293 C789.30666542 68.72721495 789.32708488 66.92443411 789.35668945 65.12182617 C789.3996492 62.50416141 789.41557499 59.88750608 789.42578125 57.26953125 C789.44328934 56.47545364 789.46079742 55.68137604 789.47883606 54.86323547 C789.44592799 46.23322221 786.06544416 39.06544416 780 33 C772.7180872 27.88298019 765.72102149 27.20412272 757 28 C752.3463365 29.35280916 749.34933554 31.46983997 746.3125 35.1875 C743.37257507 38.42141742 740.57745734 38.57894164 736.3125 38.9375 C732.76430207 39.09710752 730.37627634 39.12542545 727 38 C725.44062205 37.99824809 723.88077161 38.05459791 722.32421875 38.1484375 C721.41349609 38.18324219 720.50277344 38.21804687 719.56445312 38.25390625 C717.65704804 38.33419078 715.75048141 38.4381119 713.84570312 38.56640625 C706.95342445 38.77040604 706.95342445 38.77040604 704.1418457 36.49853516 C702.59375 34.625 702.59375 34.625 701.22338867 32.69677734 C699.70487385 30.59067517 698.17767857 29.65415954 695.8125 28.625 C694.83216797 28.18027344 694.83216797 28.18027344 693.83203125 27.7265625 C687.74823301 25.31379817 681.55907399 24.86618072 675.265625 26.87109375 C668.97318309 29.77896463 664.13490399 33.73019202 661 40 C659.16231083 39.75728634 657.32483235 39.51289892 655.48828125 39.26171875 C652.95783951 38.95817932 652.95783951 38.95817932 650.23046875 38.95703125 C642.86844969 38.74553686 642.86844969 38.74553686 640.31640625 36.5546875 C639.38356661 35.33380389 638.46721387 34.10017443 637.56640625 32.85546875 C633.85423637 28.45826004 628.61371567 26.42412537 623.0390625 25.51953125 C615.71170091 25.17105776 609.98623233 26.73321738 604 31 C601.70015911 33.14345171 599.65959799 35.32170569 598 38 C598 38.66 598 39.32 598 40 C596.97261719 39.9278125 595.94523438 39.855625 594.88671875 39.78125 C581.22702628 38.61913822 581.22702628 38.61913822 567.625 39.5625 C564.70904367 40.04849272 562.88284607 39.58159014 560 39 C553.90036693 38.55137069 548.48377911 38.62246478 542.6875 40.6875 C538.38607383 42.14848993 538.38607383 42.14848993 534.75 40.75 C534.20730469 40.440625 533.66460938 40.13125 533.10546875 39.8125 C530.09384584 38.65031528 527.27844538 38.80468132 524.0625 38.75 C518.98579126 38.50748207 516.20574913 38.03702629 512.4375 34.5625 C511.60025391 33.63630859 511.60025391 33.63630859 510.74609375 32.69140625 C506.46507097 28.54446472 501.83456596 28.80603044 496.19335938 28.87304688 C495.24267578 28.89431641 494.29199219 28.91558594 493.3125 28.9375 C491.41283499 28.97185429 489.51308801 29.00201299 487.61328125 29.02734375 C486.35704956 29.05429321 486.35704956 29.05429321 485.07543945 29.08178711 C483 29 483 29 481 28 C472.86966474 27.01193842 466.78701696 28.43978791 460 33 C457.68775831 34.88763843 455.94159551 36.70074216 454 39 C454 39.66 454 40.32 454 41 C453.28215332 40.67475342 452.56430664 40.34950684 451.82470703 40.0144043 C448.92665387 38.97366005 446.86466982 38.75518495 443.8046875 38.76953125 C442.84175781 38.77146484 441.87882812 38.77339844 440.88671875 38.77539062 C439.89285156 38.78763672 438.89898437 38.79988281 437.875 38.8125 C436.37259766 38.8134668 436.37259766 38.8134668 434.83984375 38.81445312 C429.33097746 38.79972585 429.33097746 38.79972585 424 40 C423.67 38.35 423.34 36.7 423 35 C422.6596875 35.48082031 422.319375 35.96164063 421.96875 36.45703125 C419.06233438 38.73487683 416.05406962 38.57210813 412.5 38.6875 C411.42685547 38.73874023 411.42685547 38.73874023 410.33203125 38.79101562 C405.34952612 39.01017429 400.37730389 39.03202954 395.390625 38.96484375 C393.12066486 38.99822552 390.99228409 39.22444572 388.75 39.5625 C384.78346556 40.02526235 381.88924255 39.72923298 378 39 C378 38.34 378 37.68 378 37 C377.34 37 376.68 37 376 37 C376 36.34 376 35.68 376 35 C373.92693054 33.43317912 373.92693054 33.43317912 371.3125 31.9375 C370.44238281 31.41027344 369.57226562 30.88304687 368.67578125 30.33984375 C361.39696854 26.69512439 353.97466003 27.81870396 346.33203125 29.66015625 C343.8184663 30.02645466 342.41444376 29.69584549 340 29 C331.12552329 28.00764637 324.35131863 29.7804545 317.30078125 35.33984375 C315.04009048 37.47098204 313.99127184 39.02618449 313 42 C311.87207031 41.50757813 310.74414062 41.01515625 309.58203125 40.5078125 C304.86197344 38.73792081 300.67400467 38.68495923 295.6875 38.875 C287.31534727 39.10511576 287.31534727 39.10511576 284 38 C273.5051418 37.16041134 262.06813519 38.44685469 251.99023438 41.63598633 C250 42 250 42 246.50390625 40.578125 C241.05807547 38.3639831 235.73725694 38.63564866 229.9375 38.75 C228.88755859 38.75515625 227.83761719 38.7603125 226.75585938 38.765625 C222.4151285 38.8093328 218.17007581 38.88976145 213.87890625 39.578125 C211 40 211 40 209 39 C207.12620395 38.92966231 205.24998898 38.9156978 203.375 38.9375 C201.87066406 38.95103516 201.87066406 38.95103516 200.3359375 38.96484375 C199.56507813 38.97644531 198.79421875 38.98804688 198 39 C197.71769531 38.39285156 197.43539062 37.78570312 197.14453125 37.16015625 C194.35279427 31.89111 189.46385405 28.08863984 183.8125 26.3125 C177.75424968 25.63936108 171.9627515 25.73517392 166 27 C165.01 26.67 164.02 26.34 163 26 C154.64004705 25.10928964 147.89645596 25.97419213 141 31 C139.41943576 32.82544251 139.41943576 32.82544251 138.0625 34.75 C136.24908848 37.12690098 135.4653415 37.89496994 132.5078125 38.5625 C130.61934459 38.68804911 128.72793345 38.77497502 126.8359375 38.82421875 C122.6104399 39.08612976 118.91450446 40.46319454 115 42 C114.773125 41.29875 114.54625 40.5975 114.3125 39.875 C111.31923308 33.31832009 107.27805861 29.90463104 100.82421875 26.9140625 C93.31406501 24.48339034 86.83089417 25.25927224 80 29 Z " fill="#FEFEFE" transform="translate(0,0)"/>
<path d="M0 0 C0.4125 0.38671875 0.825 0.7734375 1.25 1.171875 C9.45543016 8.57141469 15.11276731 10.45252063 26.31640625 10.3359375 C30.05621193 10.116362 30.05621193 10.116362 33.73828125 8.890625 C37.58327416 7.84073472 39.09133188 8.70922159 42.640625 10.25 C50.15593052 12.63897129 58.30279829 11.50624091 65.390625 8.36328125 C68.28051816 7.96094583 69.25597005 8.36660375 71.91796875 9.40625 C78.2021104 11.71164784 84.45040371 11.32459291 91.0625 11.1875 C92.93325195 11.16719727 92.93325195 11.16719727 94.84179688 11.14648438 C97.89498967 11.1113902 100.9472599 11.06222267 104 11 C104.66 12.65 105.32 14.3 106 16 C106.78697266 15.07767578 106.78697266 15.07767578 107.58984375 14.13671875 C110.48406701 11.57085146 112.85267336 10.84652449 116.5625 9.8125 C117.69816406 9.48894531 118.83382813 9.16539063 120.00390625 8.83203125 C120.99261719 8.55746094 121.98132813 8.28289062 123 8 C124.485 7.505 124.485 7.505 126 7 C125.54177532 10.46941546 125.10868317 13.67395049 124 17 C122.109375 17.9140625 122.109375 17.9140625 119.75 18.625 C118.93917969 18.8725 118.12835938 19.12 117.29296875 19.375 C114.87825676 20.03318385 112.46207472 20.55235005 110 21 C109.34 21.33 108.68 21.66 108 22 C101.29411765 21.29411765 101.29411765 21.29411765 100 20 C98.14630389 19.91262355 96.28932459 19.89301847 94.43359375 19.90234375 C93.30888672 19.90556641 92.18417969 19.90878906 91.02539062 19.91210938 C89.84138672 19.92048828 88.65738281 19.92886719 87.4375 19.9375 C86.24962891 19.94201172 85.06175781 19.94652344 83.83789062 19.95117188 C80.89187774 19.96300325 77.94596319 19.97948713 75 20 C75 19.34 75 18.68 75 18 C73.1253321 17.94539802 71.25019095 17.90693756 69.375 17.875 C68.33085937 17.85179688 67.28671875 17.82859375 66.2109375 17.8046875 C62.97901747 17.85944542 62.97901747 17.85944542 59.9921875 19.0234375 C56.61309214 20.12627541 54.27409908 20.07984179 50.75 19.75 C49.61820312 19.646875 48.48640625 19.54375 47.3203125 19.4375 C44.34540098 19.04551166 41.53585217 18.46213509 38.625 17.75 C33.88192451 16.6942832 31.38686803 17.88780428 27 20 C23.52791916 20.39354481 20.1895093 20.59475465 17 19 C17 18.34 17 17.68 17 17 C16.01 16.67 15.02 16.34 14 16 C10.42308722 14.53091082 7.22209946 13.14806631 4 11 C-0.01767733 11.31718505 -2.64330959 12.87136705 -6 15 C-12.03883846 18.43115821 -18.16999419 20.30262643 -25.125 19.75 C-29.72209832 20.04658699 -31.00021978 21.16906236 -34.06640625 24.39453125 C-40.08650424 29.39303686 -50.15034895 32.39924206 -58 33 C-62.90093995 32.48380495 -67.44235427 30.82586732 -72 29 C-72 28.34 -72 27.68 -72 27 C-72.886875 26.731875 -73.77375 26.46375 -74.6875 26.1875 C-82.26436782 23.47126437 -82.26436782 23.47126437 -84 20 C-86.32156597 19.59270772 -88.6568787 19.25561323 -91 19 C-92.46384673 21.3883815 -93.88460014 23.7768936 -95.171875 26.265625 C-95.58953125 27.06484375 -96.0071875 27.8640625 -96.4375 28.6875 C-96.82808594 29.45449219 -97.21867188 30.22148438 -97.62109375 31.01171875 C-99.18677224 33.26931181 -100.47649831 33.99810018 -103 35 C-103.33 33.02 -103.66 31.04 -104 29 C-104.99 29 -105.98 29 -107 29 C-107.99 23.555 -107.99 23.555 -109 18 C-110.11375 18.33 -111.2275 18.66 -112.375 19 C-118.42696512 20.51031342 -124.36416719 20.42361599 -130.5 19.4375 C-134.19748879 18.9753139 -137.24138024 19.29797757 -140.9140625 19.75 C-145.58616127 20.12849914 -150.25188852 20.00923348 -154.93505859 19.87475586 C-159.42327527 19.8005576 -162.78511757 20.58282214 -167 22 C-169.33556463 21.00522247 -171.66875071 20.00484883 -174 19 C-175.83691203 19.16401 -177.67664311 19.34401867 -179.4921875 19.66796875 C-187.29188625 20.70063915 -195.27398468 20.30410755 -203 19 C-204.82486564 19.23225563 -206.64944347 19.47221136 -208.46484375 19.76953125 C-211.83656119 20.07605102 -215.11999052 19.79618221 -218.5 19.625 C-223.44539004 19.60537544 -226.64273464 19.65056724 -230.5 22.875 C-233.93892622 26.51533838 -236.66296447 30.69201608 -239.26171875 34.9609375 C-241 37 -241 37 -243.45703125 38.0390625 C-246 38 -246 38 -248.265625 36.546875 C-250.54939687 33.19322802 -250.66824373 30.18173313 -250.75 26.25 C-250.77964844 25.55261719 -250.80929688 24.85523437 -250.83984375 24.13671875 C-250.91018458 22.42509187 -250.95739946 20.71254185 -251 19 C-251.92941406 19.10699219 -252.85882813 19.21398437 -253.81640625 19.32421875 C-266.09490334 20.51493849 -266.09490334 20.51493849 -272 17 C-272 15.68 -272 14.36 -272 13 C-274.43742131 12.83210874 -276.87492546 12.66563867 -279.3125 12.5 C-280.00279297 12.45230469 -280.69308594 12.40460938 -281.40429688 12.35546875 C-284.27662359 12.16120511 -287.12013788 12 -290 12 C-291.3618285 11.77078134 -292.71662697 11.49692501 -294.0625 11.1875 C-294.75472656 11.03667969 -295.44695312 10.88585937 -296.16015625 10.73046875 C-298 10 -298 10 -300 7 C-300 6.01 -300 5.02 -300 4 C-289.06455891 1.6355803 -281.75149556 3.01453598 -272.06640625 8.37109375 C-266.93587385 11.09648485 -262.4863833 11.12837719 -256.75 11.0625 C-256.00492188 11.05798828 -255.25984375 11.05347656 -254.4921875 11.04882812 C-252.6614236 11.03709246 -250.83070127 11.0191585 -249 11 C-248.20318916 19.02502344 -247.87132711 26.93649887 -248 35 C-247.34 35 -246.68 35 -246 35 C-245.62294922 33.92878906 -245.62294922 33.92878906 -245.23828125 32.8359375 C-243.8831301 29.73234213 -242.21659418 27.33304539 -240.1875 24.625 C-237.78800977 21.40245413 -235.41156578 18.17857564 -233.125 14.875 C-231 12 -231 12 -229 11 C-227.21425586 10.89391482 -225.42459209 10.85120408 -223.63574219 10.83886719 C-222.51407654 10.82925964 -221.39241089 10.8196521 -220.23675537 10.80975342 C-219.01909485 10.80550354 -217.80143433 10.80125366 -216.546875 10.796875 C-215.29876038 10.79117493 -214.05064575 10.78547485 -212.76470947 10.77960205 C-210.11833041 10.77014022 -207.47206507 10.76324981 -204.82568359 10.75976562 C-201.4452101 10.75429413 -198.06514209 10.73029597 -194.68479538 10.70179367 C-191.45135284 10.67860815 -188.21788901 10.67671302 -184.984375 10.671875 C-183.7748114 10.6595282 -182.5652478 10.6471814 -181.31903076 10.63446045 C-170.937703 10.66192769 -170.937703 10.66192769 -166 14 C-166 13.34 -166 12.68 -166 12 C-163.70952777 11.63818911 -161.41757055 11.28576776 -159.125 10.9375 C-157.84882813 10.74027344 -156.57265625 10.54304688 -155.2578125 10.33984375 C-152 10 -152 10 -150 11 C-144.28595557 11.36725427 -138.66039151 10.96585187 -133.0078125 10.12109375 C-130.77888514 9.98666428 -129.15084285 10.43442328 -127 11 C-125.43963251 11.0916278 -123.87554735 11.13003397 -122.3125 11.125 C-121.52488281 11.12757812 -120.73726562 11.13015625 -119.92578125 11.1328125 C-115.92681564 10.95128402 -111.97303808 10.47791854 -108 10 C-107.85377197 10.54003662 -107.70754395 11.08007324 -107.55688477 11.63647461 C-106.89556445 14.07110922 -106.22910312 16.50430679 -105.5625 18.9375 C-105.21735352 20.21270508 -105.21735352 20.21270508 -104.86523438 21.51367188 C-104.64287109 22.32255859 -104.42050781 23.13144531 -104.19140625 23.96484375 C-103.98717041 24.7137085 -103.78293457 25.46257324 -103.57250977 26.23413086 C-103.14608201 28.00543922 -103.14608201 28.00543922 -102 29 C-98.7 23.06 -95.4 17.12 -92 11 C-85 11 -85 11 -82.8828125 12.390625 C-82.30273438 13.00421875 -81.72265625 13.6178125 -81.125 14.25 C-73.57372743 21.30071472 -66.85551786 22.58781084 -56.73925781 22.47290039 C-48.43162572 22.15423966 -41.6171773 20.40225178 -35.25 14.875 C-30.58837335 11.03035946 -25.46524475 11.06773085 -19.62890625 10.4765625 C-11.45694788 9.4033882 -5.83682402 5.63037687 0 0 Z " fill="#C6C6C3" transform="translate(324,95)"/>
<path d="M0 0 C1.19183109 3.57549326 0.59538938 5.49122634 -0.79296875 8.93359375 C-3.583009 13.71007043 -8.03788654 16.35253416 -13.18286133 18.05029297 C-17.03831637 19.00953314 -20.43739936 19.31072501 -24.40234375 19.421875 C-25.80147969 19.47799718 -27.20056766 19.53532604 -28.59960938 19.59375 C-30.76943953 19.67612069 -32.93836589 19.75002103 -35.10913086 19.80273438 C-44.10488063 20.03922321 -50.15729717 20.66184345 -57 27 C-59.64453125 28.20703125 -59.64453125 28.20703125 -61.8125 28.8125 C-62.54082031 29.02519531 -63.26914062 29.23789063 -64.01953125 29.45703125 C-64.67308594 29.63621094 -65.32664062 29.81539062 -66 30 C-66.99 30.33 -67.98 30.66 -69 31 C-71.99621866 31.22373872 -74.99625668 31.18513857 -78 31.1875 C-78.81984375 31.19974609 -79.6396875 31.21199219 -80.484375 31.22460938 C-81.27328125 31.22654297 -82.0621875 31.22847656 -82.875 31.23046875 C-83.95394531 31.23663208 -83.95394531 31.23663208 -85.0546875 31.24291992 C-87 31 -87 31 -90 29 C-92.32387947 28.60612212 -94.65793749 28.26513915 -97 28 C-97 27.34 -97 26.68 -97 26 C-97.99 26 -98.98 26 -100 26 C-100.99 24.515 -100.99 24.515 -102 23 C-104.35044559 22.44956497 -104.35044559 22.44956497 -107.0625 22.375 C-108.53589844 22.27832031 -108.53589844 22.27832031 -110.0390625 22.1796875 C-111.01617188 22.12039062 -111.99328125 22.06109375 -113 22 C-114.64704299 21.84574522 -116.29310246 21.68028279 -117.9375 21.5 C-118.62714844 21.4278125 -119.31679688 21.355625 -120.02734375 21.28125 C-122 21 -122 21 -124.03125 20.41015625 C-126.79856519 19.83363225 -128.99043537 20.77983601 -131.66015625 21.515625 C-137.35460982 22.69444343 -143.34304652 22.31563831 -149.0625 21.4375 C-153.13438508 20.98506832 -156.63046088 21.25182873 -160.671875 21.75390625 C-163 22 -163 22 -166.375 21.875 C-169.00148641 21.85086344 -169.00148641 21.85086344 -171.25 22.9375 C-173.58214714 25.68610199 -173.92619345 28.23857476 -174.5078125 31.74609375 C-175.02254984 34.10326396 -175.87501018 35.8764727 -177 38 C-177.33 38.99 -177.66 39.98 -178 41 C-180.375 42.75 -180.375 42.75 -183 44 C-183.99 43.67 -184.98 43.34 -186 43 C-186 42.01 -186 41.02 -186 40 C-186.66 40 -187.32 40 -188 40 C-188.2475 39.071875 -188.495 38.14375 -188.75 37.1875 C-190.06454245 33.83541675 -190.97963384 32.8122197 -194 31 C-195.70704205 33.63815589 -197.00300788 36.00902363 -198 39 C-199.84862528 44.54587584 -202.77752258 48.0057646 -207 52 C-210 51 -210 51 -212 49 C-212.125 46.375 -212.125 46.375 -212 44 C-212.66 44 -213.32 44 -214 44 C-216.42614476 35.17634256 -217.40411834 27.14504844 -217 18 C-215.40006793 20.97000867 -214.38055476 23.84635094 -213.4921875 27.09765625 C-213.22792969 28.06380859 -212.96367188 29.02996094 -212.69140625 30.02539062 C-212.42199219 31.02763672 -212.15257812 32.02988281 -211.875 33.0625 C-211.59785156 34.06861328 -211.32070313 35.07472656 -211.03515625 36.11132812 C-209 43.61534021 -209 43.61534021 -209 47 C-206.00011781 45.5000589 -205.55258721 43.23814417 -204.1796875 40.21484375 C-203.64472656 39.04501953 -203.10976563 37.87519531 -202.55859375 36.66992188 C-201.99725905 35.42584296 -201.43606293 34.18170151 -200.875 32.9375 C-200.30657089 31.68918826 -199.73756757 30.44113782 -199.16796875 29.19335938 C-197.77296143 26.13143654 -196.38392949 23.06694187 -195 20 C-194.34 20 -193.68 20 -193 20 C-189.7 25.94 -186.4 31.88 -183 38 C-180.62218074 35.62218074 -180.2607798 34.023396 -179.34375 30.80859375 C-179.04339844 29.78185547 -178.74304688 28.75511719 -178.43359375 27.69726562 C-177.81016391 25.52047816 -177.18777136 23.34339336 -176.56640625 21.16601562 C-176.26605469 20.14056641 -175.96570313 19.11511719 -175.65625 18.05859375 C-175.25116211 16.64018188 -175.25116211 16.64018188 -174.83789062 15.19311523 C-174 13 -174 13 -172 12 C-171.01 12.33 -170.02 12.66 -169 13 C-163.85198373 13.28276665 -158.72807456 13.18595094 -153.625 12.4375 C-150.19950923 12.0240787 -148.29976897 12.31523591 -145 13 C-138.52783512 13.42750091 -132.64217223 12.96270272 -126.38671875 11.2421875 C-124 11 -124 11 -121.13671875 11.96484375 C-117.51593933 13.15974605 -114.90902039 12.96982669 -111.125 12.6875 C-106.08449814 12.59758549 -103.39325349 12.73810887 -99.6875 16.25 C-99.06875 16.88550781 -98.45 17.52101563 -97.8125 18.17578125 C-92.12290525 23.90216217 -85.40467384 24.43478198 -77.6875 24.5625 C-68.30452237 24.49875695 -60.17658704 22.82113282 -53.0625 16.3125 C-45.152906 10.33994943 -33.05236457 11.8073433 -23.59936523 12.2487793 C-17.14554515 12.42745919 -12.66664071 11.02156245 -7 8 C-6.27973633 7.67918457 -5.55947266 7.35836914 -4.81738281 7.02783203 C-2.23539204 5.56757127 -1.91286878 3.73860635 -1 1 C-0.67 0.67 -0.34 0.34 0 0 Z " fill="#C9C8C4" transform="translate(786,93)"/>
<path d="M0 0 C3.67281159 0.18313188 7.32556223 0.11768662 11 0 C11.34933594 1.21558594 11.69867188 2.43117188 12.05859375 3.68359375 C12.5180586 5.26827863 12.9777033 6.85291137 13.4375 8.4375 C13.66759766 9.23994141 13.89769531 10.04238281 14.13476562 10.86914062 C14.98705862 14.74053247 14.98705862 14.74053247 17 18 C17.17724609 17.45996338 17.35449219 16.91992676 17.53710938 16.36352539 C19.68336133 10.33466209 22.0765777 4.27086528 27 0 C36.03846907 -3.17928029 46.77633692 -1.87549418 56 0 C62.40821198 0.29683816 68.68576824 0.14804214 75 -1 C75.495 1.475 75.495 1.475 76 4 C75.01 4 74.02 4 73 4 C73.99 4.99 73.99 4.99 75 6 C75.125 8.625 75.125 8.625 75 11 C74.505 9.02 74.505 9.02 74 7 C73.38253906 7.144375 72.76507812 7.28875 72.12890625 7.4375 C64.64712538 9.07734238 57.96023879 9.41292834 50.375 8.4375 C46.39177462 7.94131968 42.97516189 8.3611347 39 9 C37.43693196 8.9281042 35.87437812 8.84427323 34.3125 8.75 C30.62425142 8.71034958 30.62425142 8.71034958 27.6875 11.0625 C26.78686399 12.6302738 25.88993448 14.20039818 25.01953125 15.78515625 C21.41299559 22.2935022 21.41299559 22.2935022 18 24 C15.75 23.6875 15.75 23.6875 14 23 C13.505 20.03 13.505 20.03 13 17 C12.34 17 11.68 17 11 17 C10.505 13.535 10.505 13.535 10 10 C9.278125 9.855625 8.55625 9.71125 7.8125 9.5625 C6.13734135 9.22746827 4.46700876 8.86294511 2.8125 8.4375 C-2.57365876 7.59965308 -8.00354982 7.6672583 -13.375 8.5625 C-16.9053515 8.98857691 -19.39218879 8.65709616 -22.875 8.125 C-26.5642374 7.72840698 -28.34374619 7.6098491 -31.5625 9.5234375 C-33.07158138 10.81329422 -34.56118008 12.12640396 -36.02734375 13.46484375 C-38 15 -38 15 -41.4375 15.0625 C-44 14 -44 14 -46 12 C-45.625 9.875 -45.625 9.875 -45 8 C-45 8.66 -45 9.32 -45 10 C-43.99839844 9.19433594 -42.99679687 8.38867188 -41.96484375 7.55859375 C-40.62320695 6.51718337 -39.28071332 5.47687619 -37.9375 4.4375 C-37.28072266 3.90447266 -36.62394531 3.37144531 -35.94726562 2.82226562 C-32.42963057 0.13638664 -30.86911294 -1.03502258 -26.31640625 -0.8515625 C-25.22199219 -0.57054688 -24.12757813 -0.28953125 -23 0 C-18.14143812 0.31089012 -13.93991099 0.2819733 -9.25 -1.125 C-5.26178423 -2.1987504 -3.8515926 -1.33324359 0 0 Z " fill="#E5E5E4" transform="translate(493,106)"/>
<path d="M0 0 C0.73863281 0.30421875 1.47726562 0.6084375 2.23828125 0.921875 C7.21058428 2.70915443 11.82450395 3.17638061 17.08203125 3.4609375 C19.55078125 3.671875 19.55078125 3.671875 21.55078125 4.671875 C21.55078125 5.331875 21.55078125 5.991875 21.55078125 6.671875 C23.53078125 7.331875 25.51078125 7.991875 27.55078125 8.671875 C27.55078125 9.331875 27.55078125 9.991875 27.55078125 10.671875 C29.53078125 11.331875 31.51078125 11.991875 33.55078125 12.671875 C33.55078125 13.001875 33.55078125 13.331875 33.55078125 13.671875 C31.24078125 13.671875 28.93078125 13.671875 26.55078125 13.671875 C26.55078125 13.011875 26.55078125 12.351875 26.55078125 11.671875 C25.56078125 11.671875 24.57078125 11.671875 23.55078125 11.671875 C22.56078125 10.186875 22.56078125 10.186875 21.55078125 8.671875 C19.20033566 8.12143997 19.20033566 8.12143997 16.48828125 8.046875 C15.01488281 7.95019531 15.01488281 7.95019531 13.51171875 7.8515625 C12.53460937 7.79226562 11.5575 7.73296875 10.55078125 7.671875 C8.90373826 7.51762022 7.25767879 7.35215779 5.61328125 7.171875 C4.92363281 7.0996875 4.23398437 7.0275 3.5234375 6.953125 C1.55078125 6.671875 1.55078125 6.671875 -0.48046875 6.08203125 C-3.24778394 5.50550725 -5.43965412 6.45171101 -8.109375 7.1875 C-13.80382857 8.36631843 -19.79226527 7.98751331 -25.51171875 7.109375 C-29.58360383 6.65694332 -33.07967963 6.92370373 -37.12109375 7.42578125 C-39.44921875 7.671875 -39.44921875 7.671875 -42.82421875 7.546875 C-45.45070516 7.52273844 -45.45070516 7.52273844 -47.69921875 8.609375 C-50.03136589 11.35797699 -50.3754122 13.91044976 -50.95703125 17.41796875 C-51.47176859 19.77513896 -52.32422893 21.5483477 -53.44921875 23.671875 C-53.94421875 25.156875 -53.94421875 25.156875 -54.44921875 26.671875 C-56.82421875 28.421875 -56.82421875 28.421875 -59.44921875 29.671875 C-60.43921875 29.341875 -61.42921875 29.011875 -62.44921875 28.671875 C-62.44921875 27.681875 -62.44921875 26.691875 -62.44921875 25.671875 C-63.10921875 25.671875 -63.76921875 25.671875 -64.44921875 25.671875 C-64.69671875 24.74375 -64.94421875 23.815625 -65.19921875 22.859375 C-66.5137612 19.50729175 -67.42885259 18.4840947 -70.44921875 16.671875 C-72.1562608 19.31003089 -73.45222663 21.68089863 -74.44921875 24.671875 C-76.29784403 30.21775084 -79.22674133 33.6776396 -83.44921875 37.671875 C-86.44921875 36.671875 -86.44921875 36.671875 -88.44921875 34.671875 C-88.57421875 32.046875 -88.57421875 32.046875 -88.44921875 29.671875 C-89.10921875 29.671875 -89.76921875 29.671875 -90.44921875 29.671875 C-92.87536351 20.84821756 -93.85333709 12.81692344 -93.44921875 3.671875 C-91.84928668 6.64188367 -90.82977351 9.51822594 -89.94140625 12.76953125 C-89.67714844 13.73568359 -89.41289063 14.70183594 -89.140625 15.69726562 C-88.87121094 16.69951172 -88.60179687 17.70175781 -88.32421875 18.734375 C-88.04707031 19.74048828 -87.76992188 20.74660156 -87.484375 21.78320312 C-85.44921875 29.28721521 -85.44921875 29.28721521 -85.44921875 32.671875 C-82.44933656 31.1719339 -82.00180596 28.91001917 -80.62890625 25.88671875 C-80.09394531 24.71689453 -79.55898438 23.54707031 -79.0078125 22.34179688 C-78.4464778 21.09771796 -77.88528168 19.85357651 -77.32421875 18.609375 C-76.75578964 17.36106326 -76.18678632 16.11301282 -75.6171875 14.86523438 C-74.22218018 11.80331154 -72.83314824 8.73881687 -71.44921875 5.671875 C-70.78921875 5.671875 -70.12921875 5.671875 -69.44921875 5.671875 C-66.14921875 11.611875 -62.84921875 17.551875 -59.44921875 23.671875 C-57.19681184 21.41946809 -56.82016047 20.11989222 -55.94140625 17.1015625 C-55.67714844 16.20566406 -55.41289063 15.30976562 -55.140625 14.38671875 C-54.87121094 13.44957031 -54.60179687 12.51242188 -54.32421875 11.546875 C-54.04707031 10.60199219 -53.76992188 9.65710938 -53.484375 8.68359375 C-52.80020405 6.34797568 -52.12208618 4.01076977 -51.44921875 1.671875 C-50.84335937 1.75566406 -50.2375 1.83945313 -49.61328125 1.92578125 C-45.14010201 2.46944457 -41.00572074 2.74596598 -36.5234375 2.1953125 C-30.10152829 1.40967342 -23.82320222 2.00554711 -17.39648438 2.53125 C-11.30144658 2.92307704 -11.30144658 2.92307704 -5.56640625 1.1171875 C-2.44921875 -0.328125 -2.44921875 -0.328125 0 0 Z " fill="#D6D6D5" transform="translate(662.44921875,107.328125)"/>
<path d="M0 0 C-1 3 -1 3 -4 5 C-4.17457533 7.08075129 -4.17457533 7.08075129 -3.875 9.375 C-3.73626299 13.68972116 -3.73626299 13.68972116 -6.125 16.5 C-9.15916492 18.08304256 -11.60645149 18.68432107 -15 19 C-15 19.66 -15 20.32 -15 21 C-14.39671875 21.02578125 -13.7934375 21.0515625 -13.171875 21.078125 C-9.32266483 21.35129475 -6.66585938 21.57194754 -3.375 23.6875 C-2 26 -2 26 -1.9375 29.0625 C-3 32 -3 32 -4.875 33.875 C-10.57375457 35.92655165 -16.48259238 35.88849681 -22.1875 33.875 C-24 32 -24 32 -24.5 29 C-23.93586488 25.6151893 -23.29759338 25.29759338 -21 23 C-20.49989476 20.04230823 -20.49989476 20.04230823 -21 17 C-21.495 16.360625 -21.99 15.72125 -22.5 15.0625 C-24.77523346 11.934054 -24.528237 9.76368865 -24 6 C-22.1875 3.125 -22.1875 3.125 -19 1 C-16.15351984 0.47641387 -13.41456884 0.25151771 -10.5234375 0.140625 C-1.49118388 -0.3627204 -1.49118388 -0.3627204 0 0 Z " fill="#4665DA" transform="translate(280,61)"/>
<path d="M0 0 C5.1305324 2.7253911 9.58002295 2.75728344 15.31640625 2.69140625 C16.06148437 2.68689453 16.8065625 2.68238281 17.57421875 2.67773438 C19.40498265 2.66599871 21.23570498 2.64806475 23.06640625 2.62890625 C23.86321709 10.65392969 24.19507914 18.56540512 24.06640625 26.62890625 C26.51865319 26.52276789 26.51865319 26.52276789 29.06640625 25.62890625 C29.77425583 23.97930897 30.43188408 22.30807385 31.06640625 20.62890625 C33.74474116 15.38098024 36.72979742 11.25606428 42.06640625 8.62890625 C50.93186856 6.71550509 60.24335932 7.43820216 69.24475098 7.80493164 C72.60952371 7.92881841 75.97538978 7.98272842 79.34179688 8.04296875 C85.9195 8.17463176 92.49235089 8.37490047 99.06640625 8.62890625 C98.73640625 9.28890625 98.40640625 9.94890625 98.06640625 10.62890625 C88.625732 12.5170411 78.51067055 12.22304448 69.06640625 10.62890625 C67.24154061 10.86116188 65.41696278 11.10111761 63.6015625 11.3984375 C60.22984506 11.70495727 56.94641573 11.42508846 53.56640625 11.25390625 C48.62101621 11.23428169 45.42367161 11.27947349 41.56640625 14.50390625 C38.12748003 18.14424463 35.40344178 22.32092233 32.8046875 26.58984375 C31.06640625 28.62890625 31.06640625 28.62890625 28.609375 29.66796875 C26.06640625 29.62890625 26.06640625 29.62890625 23.80078125 28.17578125 C21.51700938 24.82213427 21.39816252 21.81063938 21.31640625 17.87890625 C21.28675781 17.18152344 21.25710937 16.48414062 21.2265625 15.765625 C21.15622167 14.05399812 21.10900679 12.3414481 21.06640625 10.62890625 C20.13699219 10.73589844 19.20757812 10.84289062 18.25 10.953125 C5.97150291 12.14384474 5.97150291 12.14384474 0.06640625 8.62890625 C0.06640625 7.30890625 0.06640625 5.98890625 0.06640625 4.62890625 C-2.37101506 4.46101499 -4.80851921 4.29454492 -7.24609375 4.12890625 C-7.93638672 4.08121094 -8.62667969 4.03351563 -9.33789062 3.984375 C-12.21021734 3.79011136 -15.05373163 3.62890625 -17.93359375 3.62890625 C-19.29542225 3.39968759 -20.65022072 3.12583126 -21.99609375 2.81640625 C-22.68832031 2.66558594 -23.38054688 2.51476562 -24.09375 2.359375 C-25.93359375 1.62890625 -25.93359375 1.62890625 -27.93359375 -1.37109375 C-27.93359375 -2.36109375 -27.93359375 -3.35109375 -27.93359375 -4.37109375 C-16.99815266 -6.73551345 -9.68508931 -5.35655777 0 0 Z " fill="#C8C7C3" transform="translate(51.93359375,103.37109375)"/>
<path d="M0 0 C-0.33 0.99 -0.66 1.98 -1 3 C-3.0625 3.6875 -3.0625 3.6875 -5 4 C-4.67 4.66 -4.34 5.32 -4 6 C-3.71615159 8.93310019 -3.50369322 11.15187586 -4 14 C-7.22550613 17.69984527 -10.19240183 18.55278157 -15 19 C-15 19.66 -15 20.32 -15 21 C-13.14375 21.1546875 -13.14375 21.1546875 -11.25 21.3125 C-7.74420551 21.77248013 -5.34951567 22.1610019 -3 25 C-2.5 28 -2.5 28 -3 31 C-6.30810662 34.30810662 -9.80342043 35.15638404 -14.375 35.25 C-18.36497749 35.19151499 -20.94278645 34.77059978 -24 32 C-25.125 29.625 -25.125 29.625 -25 27 C-23.33333333 25.33333333 -21.66666667 23.66666667 -20 22 C-19.83022506 19.34872531 -19.83022506 19.34872531 -21 17 C-21.7734375 16.3503125 -21.7734375 16.3503125 -22.5625 15.6875 C-24.59235418 13.3046277 -24.54590934 11.04828788 -24.39453125 8.00390625 C-24 6 -24 6 -22.1875 3.0625 C-18.21417485 0.49152491 -15.18131257 0.31928322 -10.5234375 0.140625 C-1.49118388 -0.3627204 -1.49118388 -0.3627204 0 0 Z " fill="#4665DA" transform="translate(723,61)"/>
<path d="M0 0 C0.99 0.33 1.98 0.66 3 1 C3.495 16.345 3.495 16.345 4 32 C5.32 32 6.64 32 8 32 C8 32.99 8 33.98 8 35 C5.1875 35.625 5.1875 35.625 2 36 C1.01 35.34 0.02 34.68 -1 34 C-1.99 34.66 -2.98 35.32 -4 36 C-8.60130531 36.81858428 -12.02174407 36.5789678 -16.0625 34.1875 C-18.89136396 29.53356253 -19.02863651 25.31063498 -18 20 C-15.5625 16.875 -15.5625 16.875 -13 15 C-12.67 14.67 -12.34 14.34 -12 14 C-4.47761194 13.76119403 -4.47761194 13.76119403 -2 15 C-2.02320313 14.08476563 -2.04640625 13.16953125 -2.0703125 12.2265625 C-2.08835937 11.03804687 -2.10640625 9.84953125 -2.125 8.625 C-2.14820313 7.44164062 -2.17140625 6.25828125 -2.1953125 5.0390625 C-2 2 -2 2 0 0 Z " fill="#4564DB" transform="translate(683,48)"/>
<path d="M0 0 C1.66611905 -0.042721 3.33382885 -0.04063832 5 0 C6 1 6 1 6.09765625 3.94140625 C6.08605469 5.13636719 6.07445312 6.33132812 6.0625 7.5625 C6.05347656 8.76003906 6.04445313 9.95757812 6.03515625 11.19140625 C6.02355469 12.11824219 6.01195312 13.04507813 6 14 C7.73202093 12.60770997 9.46048484 11.21099444 11.1875 9.8125 C12.15042969 9.03519531 13.11335938 8.25789063 14.10546875 7.45703125 C17.05502845 5.04951232 17.05502845 5.04951232 19.61328125 2.19921875 C22 0 22 0 26 0 C25.38297446 5.39897346 22.92102734 8.45250576 18.75 11.8125 C18.1725 12.204375 17.595 12.59625 17 13 C18.8159164 18.497637 22.33258592 22.09273572 26.1015625 26.37890625 C28 29 28 29 28 33 C25.86328125 33.4375 25.86328125 33.4375 23 33 C20.72012547 30.92752698 18.98773575 28.49004572 17.1875 26 C16.68541016 25.33226563 16.18332031 24.66453125 15.66601562 23.9765625 C14.42979809 22.32827245 13.21298346 20.6654624 12 19 C10.35 19.66 8.7 20.32 7 21 C6.97421875 21.77085938 6.9484375 22.54171875 6.921875 23.3359375 C6.86515625 24.33882812 6.8084375 25.34171875 6.75 26.375 C6.70359375 27.37273437 6.6571875 28.37046875 6.609375 29.3984375 C6 32 6 32 3.953125 33.3515625 C3.30859375 33.56554687 2.6640625 33.77953125 2 34 C0 32 0 32 -0.22705078 28.83544922 C-0.22673389 27.49182037 -0.21542181 26.1481659 -0.1953125 24.8046875 C-0.1924826 24.09724396 -0.18965271 23.38980042 -0.18673706 22.66091919 C-0.17553137 20.3987749 -0.15042679 18.13702485 -0.125 15.875 C-0.11497067 14.34245363 -0.10584474 12.80990106 -0.09765625 11.27734375 C-0.07559086 7.51807699 -0.04105896 3.75910536 0 0 Z " fill="#4564DB" transform="translate(473,51)"/>
<path d="M0 0 C1.00038857 2.60101028 0.96752544 4.26520888 0.625 7.0625 C-1.22957464 10.41500031 -1.83441485 10.63191868 -5.3125 11.8125 C-8.5136377 12.69255554 -11.73314758 13.40602683 -15 14 C-15.66 14.33 -16.32 14.66 -17 15 C-23.70588235 14.29411765 -23.70588235 14.29411765 -25 13 C-26.85369611 12.91262355 -28.71067541 12.89301847 -30.56640625 12.90234375 C-31.69111328 12.90556641 -32.81582031 12.90878906 -33.97460938 12.91210938 C-35.15861328 12.92048828 -36.34261719 12.92886719 -37.5625 12.9375 C-38.75037109 12.94201172 -39.93824219 12.94652344 -41.16210938 12.95117188 C-44.10812226 12.96300325 -47.05403681 12.97948713 -50 13 C-50 12.34 -50 11.68 -50 11 C-51.8746679 10.94539802 -53.74980905 10.90693756 -55.625 10.875 C-56.66914063 10.85179688 -57.71328125 10.82859375 -58.7890625 10.8046875 C-62.02098253 10.85944542 -62.02098253 10.85944542 -65.0078125 12.0234375 C-68.38690786 13.12627541 -70.72590092 13.07984179 -74.25 12.75 C-75.94769531 12.5953125 -75.94769531 12.5953125 -77.6796875 12.4375 C-80.65459902 12.04551166 -83.46414783 11.46213509 -86.375 10.75 C-91.11807549 9.6942832 -93.61313197 10.88780428 -98 13 C-101.47208084 13.39354481 -104.8104907 13.59475465 -108 12 C-108 11.34 -108 10.68 -108 10 C-108.99 9.67 -109.98 9.34 -111 9 C-109.86820312 9.01160156 -108.73640625 9.02320312 -107.5703125 9.03515625 C-106.08854331 9.04453454 -104.60677235 9.0536347 -103.125 9.0625 C-102.37863281 9.07087891 -101.63226563 9.07925781 -100.86328125 9.08789062 C-96.80154422 9.20688084 -96.80154422 9.20688084 -93 8 C-85.69565217 7.76811594 -85.69565217 7.76811594 -82 9 C-79.60745424 9.22560676 -77.21071877 9.40848595 -74.8125 9.5625 C-72.90404297 9.68818359 -72.90404297 9.68818359 -70.95703125 9.81640625 C-69.49330078 9.90728516 -69.49330078 9.90728516 -68 10 C-68 9.34 -68 8.68 -68 8 C-59.96030747 4.71323191 -55.14050549 5.15178423 -47.05859375 8.07421875 C-43.41613671 9.1767249 -41.00448009 8.97821987 -37.33203125 8.296875 C-33.3929743 7.79542051 -29.53508991 8.34460969 -25.6015625 8.74609375 C-22.93801835 9.04856803 -22.93801835 9.04856803 -20 9 C-19.34 9 -18.68 9 -18 9 C-17.59910156 8.38511719 -17.19820313 7.77023438 -16.78515625 7.13671875 C-14.34481471 4.21578478 -12.07399222 3.80796435 -8.4375 2.8125 C-4.11500319 1.67548986 -4.11500319 1.67548986 0 0 Z " fill="#D9D8D7" transform="translate(449,102)"/>
<path d="M0 0 C3.70390021 2.02666238 5.65363011 3.48044516 8 7 C8.53692488 12.58401871 7.6464456 16.17968837 5 21 C0.6915219 23.7944359 -4.04530233 23.90595605 -9 23 C-12.55031684 20.02932673 -13.73518183 17.92686361 -15 13.5 C-15 8.22608186 -13.32848203 5.40228658 -9.75 1.625 C-6.1560459 -0.49870015 -4.11978207 -0.57821503 0 0 Z " fill="#4866DA" transform="translate(558,61)"/>
<path d="M0 0 C3.70390021 2.02666238 5.65363011 3.48044516 8 7 C8.42763893 12.30272272 8.53414849 15.75902182 5 20 C1.62374987 22.91585239 -0.06277741 24 -4.5625 24 C-8.28124996 22.91818183 -10.27409016 21.72590984 -13 19 C-14.35624248 14.93127256 -14.66606438 11.24978036 -14 7 C-10.59626836 0.86566276 -6.80328589 -0.56694049 0 0 Z " fill="#4765DA" transform="translate(379,61)"/>
<path d="M0 0 C0.721875 0.556875 1.44375 1.11375 2.1875 1.6875 C2.80625 2.161875 3.425 2.63625 4.0625 3.125 C5.1875 4.6875 5.1875 4.6875 4.875 6.875 C4.648125 7.473125 4.42125 8.07125 4.1875 8.6875 C2.8675 8.6875 1.5475 8.6875 0.1875 8.6875 C-0.43125 8.0275 -1.05 7.3675 -1.6875 6.6875 C-3.6875 4.4375 -3.6875 4.4375 -6.6875 4.1875 C-10.59495301 4.81269248 -12.76082169 6.20357579 -15.8125 8.6875 C-16.73600727 11.45802181 -16.97579585 13.25438758 -17 16.125 C-17.01417969 16.88683594 -17.02835938 17.64867188 -17.04296875 18.43359375 C-16.78153451 20.990332 -16.1936053 22.52636845 -14.8125 24.6875 C-11.60625113 26.82499925 -10.58791897 26.98324999 -6.875 27 C-5.59302734 27.02513672 -5.59302734 27.02513672 -4.28515625 27.05078125 C-1.35936131 26.62092512 -0.08592184 25.50818473 2.1875 23.6875 C4.4375 24 4.4375 24 6.1875 24.6875 C6.0625 27 6.0625 27 5.1875 29.6875 C-0.02511958 33.77306669 -6.50891416 33.43208464 -12.8125 32.6875 C-17.0101193 31.43045893 -19.84294853 29.07722834 -22.25 25.4375 C-25.00235462 19.86160918 -24.26791082 14.68501712 -22.5625 8.9375 C-21.23837416 5.35928086 -19.990037 2.95716928 -16.8125 0.6875 C-11.3460086 -1.79726882 -5.55990973 -2.59462454 0 0 Z " fill="#4866DA" transform="translate(72.8125,51.3125)"/>
<path d="M0 0 C1.890625 0.6171875 1.890625 0.6171875 4 2 C5.046875 4.8203125 5.046875 4.8203125 5.75 8.125 C5.99234375 9.22070312 6.2346875 10.31640625 6.484375 11.4453125 C6.65453125 12.28835937 6.8246875 13.13140625 7 14 C9.20705137 10.68942294 10.00226139 7.76266543 11.0234375 3.9609375 C12 2 12 2 14.1015625 1.2265625 C14.72804688 1.15179688 15.35453125 1.07703125 16 1 C18.97068161 5.3852919 20.45941767 9.98491285 22 15 C22.19335938 14.16855469 22.38671875 13.33710937 22.5859375 12.48046875 C22.84632813 11.39378906 23.10671875 10.30710937 23.375 9.1875 C23.63023437 8.10855469 23.88546875 7.02960938 24.1484375 5.91796875 C25 3 25 3 27 0 C28.32 0.33 29.64 0.66 31 1 C30.59769213 6.1294253 29.61666612 10.90981381 28.25 15.875 C27.79367187 17.54175781 27.79367187 17.54175781 27.328125 19.2421875 C26 22 26 22 23.359375 23.3828125 C22.58078125 23.58648437 21.8021875 23.79015625 21 24 C18.52140092 21.7991151 17.38789634 19.93627031 16.3125 16.8125 C16.06113281 16.09707031 15.80976562 15.38164063 15.55078125 14.64453125 C15.36902344 14.10183594 15.18726563 13.55914062 15 13 C14.731875 13.53625 14.46375 14.0725 14.1875 14.625 C13.795625 15.40875 13.40375 16.1925 13 17 C12.54625 18.051875 12.0925 19.10375 11.625 20.1875 C10 23 10 23 7.8125 23.875 C7.214375 23.91625 6.61625 23.9575 6 24 C0.72034318 16.89977186 -1.63345969 9.86843563 -1 1 C-0.67 0.67 -0.34 0.34 0 0 Z " fill="#4665DA" transform="translate(576,61)"/>
<path d="M0 0 C3 1.75 3 1.75 5 5 C5.40744909 9.365526 5.28795169 13.62953317 5 18 C6.32 18 7.64 18 9 18 C8.67 19.32 8.34 20.64 8 22 C5.35231443 22.68083343 3.44404995 23.09867777 0.75 22.5 C-2.0662672 21.98795142 -3.71896582 22.25272899 -6.5 22.75 C-10.26250089 23.23446918 -10.75349077 23.16269609 -14.125 20.9375 C-16 18 -16 18 -16.0625 14.875 C-14.83498677 11.5534936 -14.00536974 10.77000186 -11 9 C-8.421875 8.70703125 -8.421875 8.70703125 -5.75 8.8125 C-4.41195312 8.85310547 -4.41195312 8.85310547 -3.046875 8.89453125 C-2.37140625 8.92933594 -1.6959375 8.96414062 -1 9 C-1.33 7.68 -1.66 6.36 -2 5 C-5.83225427 4.91087781 -9.26562152 5.12132271 -13 6 C-13 4.68 -13 3.36 -13 2 C-9.01831877 -1.60839862 -4.93288561 -1.55147209 0 0 Z " fill="#4866D9" transform="translate(136,62)"/>
<path d="M0 0 C2.2698727 0.18425564 4.14801494 -0.00218046 6.38671875 -0.37890625 C10.80333879 -0.8775569 13.14007166 -0.27615626 17.26171875 1.18359375 C17.46667969 2.03824219 17.67164063 2.89289063 17.8828125 3.7734375 C18.15222656 4.87816406 18.42164063 5.98289062 18.69921875 7.12109375 C18.96605469 8.22324219 19.23289062 9.32539062 19.5078125 10.4609375 C19.991676 13.07780629 19.991676 13.07780629 21.26171875 14.18359375 C21.63683594 13.42433594 22.01195312 12.66507813 22.3984375 11.8828125 C22.91019531 10.88894531 23.42195313 9.89507812 23.94921875 8.87109375 C24.69751953 7.39189453 24.69751953 7.39189453 25.4609375 5.8828125 C27.46242484 2.8827523 28.99373538 1.65798625 32.26171875 0.18359375 C38.33359375 0.39296875 38.33359375 0.39296875 40.94921875 2.62109375 C41.38234375 3.13671875 41.81546875 3.65234375 42.26171875 4.18359375 C44.36161527 5.35934086 44.36161527 5.35934086 46.26171875 6.18359375 C46.26171875 6.84359375 46.26171875 7.50359375 46.26171875 8.18359375 C47.91171875 8.84359375 49.56171875 9.50359375 51.26171875 10.18359375 C51.26171875 10.51359375 51.26171875 10.84359375 51.26171875 11.18359375 C46.44878144 11.74982167 44.01695421 10.0853666 40.26171875 7.18359375 C39.76671875 6.19359375 39.76671875 6.19359375 39.26171875 5.18359375 C36.94015278 4.77630147 34.60484005 4.43920698 32.26171875 4.18359375 C30.79787202 6.57197525 29.37711861 8.96048735 28.08984375 11.44921875 C27.6721875 12.2484375 27.25453125 13.04765625 26.82421875 13.87109375 C26.43363281 14.63808594 26.04304688 15.40507813 25.640625 16.1953125 C24.07494651 18.45290556 22.78522044 19.18169393 20.26171875 20.18359375 C19.76671875 17.21359375 19.76671875 17.21359375 19.26171875 14.18359375 C18.27171875 14.18359375 17.28171875 14.18359375 16.26171875 14.18359375 C15.27171875 8.73859375 15.27171875 8.73859375 14.26171875 3.18359375 C13.14796875 3.51359375 12.03421875 3.84359375 10.88671875 4.18359375 C4.83475363 5.69390717 -1.10244844 5.60720974 -7.23828125 4.62109375 C-10.93577004 4.15890765 -13.97966149 4.48157132 -17.65234375 4.93359375 C-22.32444252 5.31209289 -26.99016977 5.19282723 -31.67333984 5.05834961 C-36.16077163 4.98416432 -39.52510969 5.76088509 -43.73828125 7.18359375 C-47.11328125 5.80859375 -47.11328125 5.80859375 -49.73828125 4.18359375 C-46.1153895 3.16918406 -42.45946503 2.70586516 -38.73828125 2.18359375 C-38.04089844 2.00828125 -37.34351563 1.83296875 -36.625 1.65234375 C-32.41013909 0.96792791 -28.24928599 1.11971062 -23.98828125 1.18359375 C-22.26438399 1.20898252 -20.54041587 1.23005645 -18.81640625 1.24609375 C-17.67800293 1.26349609 -17.67800293 1.26349609 -16.51660156 1.28125 C-14.71282641 1.38056249 -14.71282641 1.38056249 -13.73828125 0.18359375 C-8.86960692 -0.8307134 -4.90234672 -0.67417671 0 0 Z " fill="#DADAD8" transform="translate(200.73828125,109.81640625)"/>
<path d="M0 0 C0.99 0 1.98 0 3 0 C3.33 5.61 3.66 11.22 4 17 C4.99 16.01 5.98 15.02 7 14 C10.4375 13.5 10.4375 13.5 14 14 C17.8416867 17.71753884 18.53759884 20.55557123 18.75 25.8125 C18.80671875 26.97394531 18.8634375 28.13539062 18.921875 29.33203125 C18.94765625 30.21246094 18.9734375 31.09289062 19 32 C20.485 32.495 20.485 32.495 22 33 C22 33.99 22 34.98 22 36 C19.03 36.495 19.03 36.495 16 37 C11.26903026 31.50597063 11.22884983 26.0714597 11 19 C7.74814325 19.64544245 7.74814325 19.64544245 5.3125 21.875 C3.38547634 26.46315157 3.25055969 31.06656613 3 36 C1.35 36 -0.3 36 -2 36 C-2.04936883 31.19451403 -2.08570443 26.38917506 -2.10986328 21.58349609 C-2.11993254 19.94805328 -2.13358881 18.31262851 -2.15087891 16.67724609 C-2.17508705 14.3290563 -2.18647357 11.98110412 -2.1953125 9.6328125 C-2.21079636 8.53273361 -2.21079636 8.53273361 -2.22659302 7.41043091 C-2.22699368 5.60537303 -2.12212755 3.8009217 -2 2 C-1.34 1.34 -0.68 0.68 0 0 Z " fill="#4564DB" transform="translate(91,48)"/>
<path d="M0 0 C2.6875 2.375 2.6875 2.375 3.8125 5.375 C3.6875 8.375 3.6875 8.375 2.4375 10.75 C-1.91283153 13.32065045 -6.37963032 12.68117812 -11.3125 12.375 C-10.6525 13.695 -9.9925 15.015 -9.3125 16.375 C-5.15111737 16.45659574 -1.3652516 16.35748524 2.6875 15.375 C2.4375 17.75 2.4375 17.75 1.6875 20.375 C-1.61078872 23.03900242 -5.24265901 22.79601803 -9.3125 22.375 C-12.36607079 20.76179279 -14.55083566 19.34439098 -16.6875 16.625 C-18.13649408 11.40862133 -18.01303657 7.72603481 -15.5625 3 C-11.01859766 -2.3012194 -6.36557209 -3.12273348 0 0 Z " fill="#4765DA" transform="translate(304.3125,62.625)"/>
<path d="M0 0 C1.4375 2.375 1.4375 2.375 1.375 6 C0.4375 9.375 0.4375 9.375 -2.5625 11.375 C-5.26171875 11.5703125 -5.26171875 11.5703125 -8.25 11.5 C-9.74080078 11.47292969 -9.74080078 11.47292969 -11.26171875 11.4453125 C-12.02097656 11.42210938 -12.78023437 11.39890625 -13.5625 11.375 C-12.9025 12.695 -12.2425 14.015 -11.5625 15.375 C-7.6025 15.375 -3.6425 15.375 0.4375 15.375 C-0.5625 19.375 -0.5625 19.375 -2.1875 20.625 C-5.52529791 21.67904145 -8.07473685 21.73580308 -11.5625 21.375 C-15.26640021 19.34833762 -17.21613011 17.89455484 -19.5625 14.375 C-20.3250943 9.71962779 -19.95645811 6.17750726 -17.875 1.9375 C-12.85781602 -3.62208225 -6.23769049 -3.95560861 0 0 Z " fill="#4966D9" transform="translate(654.5625,63.625)"/>
<path d="M0 0 C5.57894737 3.15789474 5.57894737 3.15789474 7 6 C7.1875 9 7.1875 9 7 12 C5 14 5 14 1.9609375 14.1953125 C0.77757812 14.17210938 -0.40578125 14.14890625 -1.625 14.125 C-2.81351563 14.10695313 -4.00203125 14.08890625 -5.2265625 14.0703125 C-6.14179688 14.04710938 -7.05703125 14.02390625 -8 14 C-7.67 15.32 -7.34 16.64 -7 18 C-2.45194365 18.17835515 0.8794254 17.99785435 5 16 C5.33 17.65 5.66 19.3 6 21 C0.87518188 23.61470312 -2.22653686 24.633999 -8 23 C-12.10220727 19.78475646 -13.73051668 16.78532702 -14.5 11.6875 C-13.83398123 6.77561156 -11.58855833 4.29106127 -8 1 C-5.13391871 -0.43304064 -3.18699217 -0.30644155 0 0 Z " fill="#4A67D9" transform="translate(205,61)"/>
<path d="M0 0 C2.5647293 1.50012468 4.89183465 2.89183465 7 5 C7.1875 8.4375 7.1875 8.4375 7 12 C5 14 5 14 1.9609375 14.1953125 C0.77757812 14.17210938 -0.40578125 14.14890625 -1.625 14.125 C-2.81351563 14.10695313 -4.00203125 14.08890625 -5.2265625 14.0703125 C-6.14179687 14.04710938 -7.05703125 14.02390625 -8 14 C-6.70768634 16.04471691 -6.70768634 16.04471691 -5 18 C-1.9157691 18.41702122 -1.9157691 18.41702122 1 18 C1.33 17.67 1.66 17.34 2 17 C3.66617115 16.95936168 5.33388095 16.957279 7 17 C6.875 18.8125 6.875 18.8125 6 21 C2.63288066 23.32491574 0.54241151 24 -3.5625 24 C-7.63993129 22.81383817 -9.31552698 21.23715865 -12 18 C-13.74221711 14.51556578 -13.58675154 10.80112955 -13 7 C-9.88183305 1.36868358 -6.33540849 -0.60917389 0 0 Z " fill="#4866DA" transform="translate(743,61)"/>
<path d="M0 0 C0.99 0.495 0.99 0.495 2 1 C-0.90884969 5.13951687 -3.20175525 7.31640535 -8 9 C-10.10173256 9.16081859 -12.20668802 9.2817356 -14.3125 9.375 C-20.81320562 9.74352073 -24.62267497 11.54039483 -30 15 C-39.75152938 20.36486961 -46.89930969 22.80150306 -58 21 C-59.23556641 20.81244141 -59.23556641 20.81244141 -60.49609375 20.62109375 C-65.28888229 19.74753131 -67.7653173 18.81230461 -71 15 C-72.64142963 13.9590934 -74.30712215 12.95495674 -76 12 C-76.99 11.34 -77.98 10.68 -79 10 C-82.62683775 9.62801664 -84.87350101 10.14725986 -88 12 C-86.125 7.25 -86.125 7.25 -85 5 C-81.31116746 4.46204526 -79.14771221 4.15664062 -76.0703125 6.41796875 C-75.42835938 7.02253906 -74.78640625 7.62710938 -74.125 8.25 C-66.57372743 15.30071472 -59.85551786 16.58781084 -49.73925781 16.47290039 C-41.43162572 16.15423966 -34.6171773 14.40225178 -28.25 8.875 C-23.59362322 5.03468925 -18.48344779 5.05712579 -12.6484375 4.50390625 C-8.47345218 3.92727552 -5.31774184 2.69127798 -1.63671875 0.70703125 C-0.82654297 0.35705078 -0.82654297 0.35705078 0 0 Z " fill="#C7C6C2" transform="translate(317,101)"/>
<path d="M0 0 C2.4375 0.25 2.4375 0.25 5 1 C5.66 1.99 6.32 2.98 7 4 C7.680625 3.319375 8.36125 2.63875 9.0625 1.9375 C12 0 12 0 15.625 0.0625 C20.14285714 1.31746032 20.14285714 1.31746032 22 4 C23.09506492 7.28519475 23.09960608 9.73663415 23.0625 13.1875 C23.05347656 14.27417969 23.04445312 15.36085938 23.03515625 16.48046875 C23.02355469 17.31191406 23.01195312 18.14335938 23 19 C23.99 19.33 24.98 19.66 26 20 C25.67 20.99 25.34 21.98 25 23 C22.6875 23.25 22.6875 23.25 20 23 C16.84628451 19.84628451 16.54902778 17.1021111 16.3125 12.75 C16.24675781 11.67234375 16.18101562 10.5946875 16.11328125 9.484375 C16.07589844 8.66453125 16.03851563 7.8446875 16 7 C13.92446352 6.4465236 12.15634036 6 10 6 C9.34 11.61 8.68 17.22 8 23 C6.35 23 4.7 23 3 23 C2 22 2 22 1.90234375 18.40234375 C1.9090178 16.91403133 1.92097817 15.42573568 1.9375 13.9375 C1.94201172 13.17888672 1.94652344 12.42027344 1.95117188 11.63867188 C1.9629932 9.75908129 1.98092922 7.87953101 2 6 C0.68 5.67 -0.64 5.34 -2 5 C-1.125 1.125 -1.125 1.125 0 0 Z " fill="#4B68D8" transform="translate(222,61)"/>
<path d="M0 0 C3.43859819 0.27912628 4.6928044 0.65239956 7.01953125 3.28515625 C7.61121094 4.20167969 8.20289063 5.11820313 8.8125 6.0625 C9.41707031 6.98160156 10.02164062 7.90070312 10.64453125 8.84765625 C11.09183594 9.55792969 11.53914063 10.26820312 12 11 C16.4744913 9.5085029 17.68509024 6.06057229 20.0859375 2.15234375 C22 0 22 0 24.7265625 -0.30859375 C25.47679687 -0.20675781 26.22703125 -0.10492188 27 0 C27.33 0.99 27.66 1.98 28 3 C26.77689273 4.63921592 25.53950921 6.27007914 24.22583008 7.83764648 C17.28001575 16.13512454 15.33987306 22.1769885 16 33 C14.35 33 12.7 33 11 33 C11.020625 32.11699219 11.04125 31.23398438 11.0625 30.32421875 C10.89543592 20.60317742 8.51098744 15.15701926 2 8 C1.41347656 7.46117187 0.82695312 6.92234375 0.22265625 6.3671875 C-0.18082031 5.91601562 -0.58429688 5.46484375 -1 5 C-0.6875 2.3125 -0.6875 2.3125 0 0 Z " fill="#4463DB" transform="translate(333,51)"/>
<path d="M0 0 C1.54866498 0.14605296 3.09508743 0.31981646 4.63671875 0.52734375 C11.73726441 1.32555945 18.94359281 1.06565358 25.96484375 -0.2109375 C26.45984375 2.2640625 26.45984375 2.2640625 26.96484375 4.7890625 C25.97484375 4.7890625 24.98484375 4.7890625 23.96484375 4.7890625 C23.96484375 5.1190625 23.96484375 5.4490625 23.96484375 5.7890625 C20.51076259 6.57555879 17.36320182 6.89869657 13.82421875 6.8515625 C12.84348389 6.84310303 11.86274902 6.83464355 10.85229492 6.82592773 C9.81693604 6.81376221 8.78157715 6.80159668 7.71484375 6.7890625 C0.17927694 6.74394618 -7.32373578 6.77946479 -14.84765625 7.2265625 C-15.53956055 7.26587891 -16.23146484 7.30519531 -16.94433594 7.34570312 C-19.85165153 7.53765388 -22.25432736 7.86211954 -25.03515625 8.7890625 C-25.91312504 10.7922774 -25.91312504 10.7922774 -26.47265625 13.1640625 C-27.40998741 16.30013324 -27.79341769 17.56113758 -30.22265625 19.8515625 C-31.11984375 20.315625 -31.11984375 20.315625 -32.03515625 20.7890625 C-26.90611689 4.81296382 -26.90611689 4.81296382 -22.03515625 0.7890625 C-15.06392596 -1.73548475 -7.23624879 -0.50290532 0 0 Z " fill="#C7C6C3" transform="translate(542.03515625,105.2109375)"/>
<path d="M0 0 C3.3540905 0.61967068 6.448359 0.4069742 9.8515625 0.2421875 C17.25440167 0.11399981 17.25440167 0.11399981 20.6015625 3.2421875 C22.6640625 6.4921875 22.6640625 6.4921875 22.29296875 8.6953125 C22.08542969 9.28828125 21.87789062 9.88125 21.6640625 10.4921875 C20.6740625 9.8321875 19.6840625 9.1721875 18.6640625 8.4921875 C18.6640625 7.8321875 18.6640625 7.1721875 18.6640625 6.4921875 C17.76945313 6.45480469 16.87484375 6.41742188 15.953125 6.37890625 C9.19213754 6.01130459 3.31292398 5.46737768 -2.95703125 2.8203125 C-5.97337905 2.40426453 -7.55306586 3.52950425 -10.2277832 4.80273438 C-14.57986725 6.22604478 -19.21133889 5.46599359 -23.7109375 5.1171875 C-30.08475336 4.66902857 -36.07733589 4.41676879 -42.41992188 5.27441406 C-46.14566969 5.69788081 -49.64578103 5.01935271 -53.3359375 4.4921875 C-53.0059375 2.8421875 -52.6759375 1.1921875 -52.3359375 -0.5078125 C-51.50835938 -0.26417969 -51.50835938 -0.26417969 -50.6640625 -0.015625 C-44.94518012 1.23178223 -38.72147096 0.77295951 -32.9609375 -0.0703125 C-29.53231636 -0.4841116 -27.63913326 -0.19020923 -24.3359375 0.4921875 C-19.24111405 0.81531052 -14.61106621 0.8879171 -9.7109375 -0.6328125 C-5.76862004 -1.6548948 -3.82395032 -1.06439854 0 0 Z " fill="#C6C5C3" transform="translate(665.3359375,105.5078125)"/>
<path d="M0 0 C1.32 0 2.64 0 4 0 C5.585869 3.171738 5.37866445 6.63513822 5.5625 10.125 C5.60568359 10.87910156 5.64886719 11.63320312 5.69335938 12.41015625 C5.7994832 14.27321888 5.90025001 16.13658524 6 18 C8.3431213 17.74438677 10.67843403 17.40729228 13 17 C14.40233067 14.19533866 14.30659936 11.62203894 14.5 8.5 C14.88888889 2.22222222 14.88888889 2.22222222 16 0 C18.475 0.495 18.475 0.495 21 1 C21.04898437 2.12019531 21.09796875 3.24039063 21.1484375 4.39453125 C21.22347856 5.86721203 21.29902582 7.33986707 21.375 8.8125 C21.4059375 9.55048828 21.436875 10.28847656 21.46875 11.04882812 C21.67346148 14.81893115 21.86433827 16.79650741 24 20 C24 20.99 24 21.98 24 23 C22.35 23 20.7 23 19 23 C18.67 22.01 18.34 21.02 18 20 C16.453125 21.0209375 16.453125 21.0209375 14.875 22.0625 C12.12855299 23.62159416 11.08198329 24 7.8125 24 C3.95721664 22.62923258 1.82529373 20.65058745 0 17 C-0.07194869 14.11629667 -0.09291708 11.25760336 -0.0625 8.375 C-0.05798828 7.57320313 -0.05347656 6.77140625 -0.04882812 5.9453125 C-0.03703168 3.96350994 -0.01909605 1.98174567 0 0 Z " fill="#4967D9" transform="translate(397,61)"/>
<path d="M0 0 C0.763125 0.20625 1.52625 0.4125 2.3125 0.625 C2.6425 1.615 2.9725 2.605 3.3125 3.625 C4.01375 2.965 4.715 2.305 5.4375 1.625 C8.3125 -0.375 8.3125 -0.375 11.3125 -0.9375 C14.3125 -0.375 14.3125 -0.375 17.125 1.3125 C20.06669051 5.76705992 19.91707632 9.50908869 19.9765625 14.76171875 C20.14285156 16.17904297 20.14285156 16.17904297 20.3125 17.625 C21.3025 18.285 22.2925 18.945 23.3125 19.625 C22.9825 20.615 22.6525 21.605 22.3125 22.625 C20 22.875 20 22.875 17.3125 22.625 C14.15878451 19.47128451 13.86152778 16.7271111 13.625 12.375 C13.55925781 11.29734375 13.49351562 10.2196875 13.42578125 9.109375 C13.38839844 8.28953125 13.35101562 7.4696875 13.3125 6.625 C11.47549211 5.85257731 11.47549211 5.85257731 9.3125 5.625 C7.4382837 6.53642608 7.4382837 6.53642608 6.3125 8.625 C5.73031668 12.0473884 5.73031668 12.0473884 5.625 15.8125 C5.55925781 17.08480469 5.49351562 18.35710937 5.42578125 19.66796875 C5.38839844 20.64378906 5.35101562 21.61960937 5.3125 22.625 C3.6625 22.625 2.0125 22.625 0.3125 22.625 C-0.59163673 18.78775828 -0.79326898 15.24997726 -0.75 11.3125 C-0.74097656 10.24386719 -0.73195313 9.17523438 -0.72265625 8.07421875 C-0.70525391 6.86185547 -0.70525391 6.86185547 -0.6875 5.625 C-3.1625 4.635 -3.1625 4.635 -5.6875 3.625 C-5.6875 2.965 -5.6875 2.305 -5.6875 1.625 C-2.6875 -0.375 -2.6875 -0.375 0 0 Z " fill="#4765DA" transform="translate(512.6875,61.375)"/>
<path d="M0 0 C7.59 0.33 15.18 0.66 23 1 C23.73588298 5.41529789 24.11130367 8.98267011 24.0625 13.375 C24.05347656 14.43460938 24.04445313 15.49421875 24.03515625 16.5859375 C24.02355469 17.38257813 24.01195313 18.17921875 24 19 C26.45224694 18.89386164 26.45224694 18.89386164 29 18 C29.70784958 16.35040272 30.36547783 14.6791676 31 13 C33.67833491 7.75207399 36.66339117 3.62715803 42 1 C50.86546231 -0.91340116 60.17695307 -0.19070409 69.17834473 0.17602539 C72.54311746 0.29991216 75.90898353 0.35382217 79.27539062 0.4140625 C85.85309375 0.54572551 92.42594464 0.74599422 99 1 C98.67 1.66 98.34 2.32 98 3 C88.55932575 4.88813485 78.4442643 4.59413823 69 3 C67.17513436 3.23225563 65.35055653 3.47221136 63.53515625 3.76953125 C60.16343881 4.07605102 56.88000948 3.79618221 53.5 3.625 C48.55460996 3.60537544 45.35726536 3.65056724 41.5 6.875 C38.06107378 10.51533838 35.33703553 14.69201608 32.73828125 18.9609375 C31 21 31 21 28.54296875 22.0390625 C26 22 26 22 23.734375 20.546875 C21.45060313 17.19322802 21.33175627 14.18173313 21.25 10.25 C21.22035156 9.55261719 21.19070312 8.85523437 21.16015625 8.13671875 C21.08981542 6.42509187 21.04260054 4.71254185 21 3 C20.07058594 3.10699219 19.14117187 3.21398437 18.18359375 3.32421875 C5.90509666 4.51493849 5.90509666 4.51493849 0 1 C0 0.67 0 0.34 0 0 Z " fill="#E3E3E3" transform="translate(52,111)"/>
<path d="M0 0 C3.67281159 0.18313188 7.32556223 0.11768662 11 0 C11.495 2.97 11.495 2.97 12 6 C10.72358643 5.98428955 9.44717285 5.9685791 8.13208008 5.95239258 C3.38914316 5.89802619 -1.3537663 5.86362537 -6.09692383 5.83520508 C-8.14840326 5.82013378 -10.19985056 5.79967318 -12.2512207 5.77368164 C-15.20271748 5.73722576 -18.15378763 5.72025694 -21.10546875 5.70703125 C-22.02023483 5.69154739 -22.93500092 5.67606354 -23.87748718 5.66011047 C-28.80372207 5.65881328 -31.96498487 5.87339389 -36 9 C-37.093125 9.721875 -38.18625 10.44375 -39.3125 11.1875 C-40.6428125 12.0846875 -40.6428125 12.0846875 -42 13 C-42.33 11.68 -42.66 10.36 -43 9 C-40.99711367 7.28625215 -38.97724083 5.60637886 -36.9375 3.9375 C-36.09541992 3.20950195 -36.09541992 3.20950195 -35.23632812 2.46679688 C-31.97714123 -0.15917657 -30.71301397 -1.03538149 -26.37890625 -0.8203125 C-25.26386719 -0.54960938 -24.14882813 -0.27890625 -23 0 C-18.14143812 0.31089012 -13.93991099 0.2819733 -9.25 -1.125 C-5.26178423 -2.1987504 -3.8515926 -1.33324359 0 0 Z " fill="#CAC9C7" transform="translate(493,106)"/>
<path d="M0 0 C3 0.3125 3 0.3125 6 1 C6.495 1.99 6.495 1.99 7 3 C5.700625 2.87625 5.700625 2.87625 4.375 2.75 C0.16854092 3.06158956 -1.62295505 4.53757139 -5 7 C-10.99478443 10.46365323 -17.19873384 12.30034285 -24.125 11.75 C-28.72209832 12.04658699 -30.00021978 13.16906236 -33.06640625 16.39453125 C-39.08650424 21.39303686 -49.15034895 24.39924206 -57 25 C-61.90093995 24.48380495 -66.44235427 22.82586732 -71 21 C-70.505 19.515 -70.505 19.515 -70 18 C-68.99582031 18.11859375 -67.99164063 18.2371875 -66.95703125 18.359375 C-56.06199045 19.46012765 -46.58254202 18.89338138 -37.26953125 12.44140625 C-32.58530628 9.42908585 -28.14309597 9.03934634 -22.6875 8.5625 C-14.27463581 7.61777913 -6.28317141 6.28317141 0 0 Z " fill="#D5D5D5" transform="translate(323,103)"/>
<path d="M0 0 C5.72686673 0.32237329 11.32563626 -0.03206003 16.9921875 -0.87890625 C19.22111486 -1.01333572 20.84915715 -0.56557672 23 0 C29.39622304 0.37559859 35.66029507 -0.18197356 42 -1 C42.495 1.475 42.495 1.475 43 4 C41.824375 3.979375 40.64875 3.95875 39.4375 3.9375 C36.6583149 3.92773134 34.26974851 4.11736185 31.5 4.5625 C28.19040204 4.97619974 25.55211855 4.69071055 22.28125 4.1875 C19.55404015 3.96334577 17.0333296 4.21359688 14.3125 4.5 C9.8541091 4.9559718 5.77042106 4.8905831 1.3125 4.4375 C-5.4070489 3.80023186 -10.67387766 4.89129255 -17 7 C-18 5 -18 5 -17.39453125 2.95703125 C-16 1 -16 1 -13.57421875 0.13671875 C-12.14529297 -0.08564453 -12.14529297 -0.08564453 -10.6875 -0.3125 C-9.27017578 -0.55419922 -9.27017578 -0.55419922 -7.82421875 -0.80078125 C-4.95329292 -1.00329469 -2.79134994 -0.62972855 0 0 Z " fill="#C6C5C3" transform="translate(174,106)"/>
<path d="M0 0 C1.32 0.33 2.64 0.66 4 1 C4 10.9 4 20.8 4 31 C5.32 31.33 6.64 31.66 8 32 C8 33.32 8 34.64 8 36 C5.25 36.75 5.25 36.75 2 37 C-0.17431641 35.45947266 -0.17431641 35.45947266 -2 33 C-2.48583984 29.73193359 -2.48583984 29.73193359 -2.4609375 25.8984375 C-2.46002106 25.22076324 -2.45910461 24.54308899 -2.4581604 23.84487915 C-2.45213601 22.41767336 -2.43642453 20.99047953 -2.41162109 19.56347656 C-2.37500301 17.37517968 -2.3706026 15.18857194 -2.37109375 13 C-2.29530089 2.29530089 -2.29530089 2.29530089 0 0 Z " fill="#4A67D9" transform="translate(156,48)"/>
<path d="M0 0 C1.32 0.33 2.64 0.66 4 1 C4 11.23 4 21.46 4 32 C5.65 32 7.3 32 9 32 C8.67 33.32 8.34 34.64 8 36 C5.75 36.75 5.75 36.75 3 37 C0.71032629 35.15554062 -0.68681224 33.62637553 -2 31 C-2.40274494 23.59660037 -1.96766493 16.14699757 -1.5625 8.75 C-1.52334473 7.99904053 -1.48418945 7.24808105 -1.44384766 6.47436523 C-1.12129144 1.12129144 -1.12129144 1.12129144 0 0 Z " fill="#4B68D8" transform="translate(175,48)"/>
<path d="M0 0 C0.99 0 1.98 0 3 0 C3.33 10.23 3.66 20.46 4 31 C5.32 31.33 6.64 31.66 8 32 C8 33.32 8 34.64 8 36 C5.25 36.75 5.25 36.75 2 37 C-0.17431641 35.45947266 -0.17431641 35.45947266 -2 33 C-2.48583984 29.73193359 -2.48583984 29.73193359 -2.4609375 25.8984375 C-2.46002106 25.22076324 -2.45910461 24.54308899 -2.4581604 23.84487915 C-2.45213601 22.41767336 -2.43642453 20.99047953 -2.41162109 19.56347656 C-2.37500301 17.37517968 -2.3706026 15.18857194 -2.37109375 13 C-2.29530089 2.29530089 -2.29530089 2.29530089 0 0 Z " fill="#4363DB" transform="translate(619,48)"/>
<path d="M0 0 C0.9075 0.226875 1.815 0.45375 2.75 0.6875 C3.08 2.0075 3.41 3.3275 3.75 4.6875 C1.20299007 6.29117292 0.13598454 6.75192578 -2.89453125 6.24609375 C-3.67183594 6.06175781 -4.44914062 5.87742187 -5.25 5.6875 C-5.31058594 6.74710937 -5.37117188 7.80671875 -5.43359375 8.8984375 C-5.51800127 10.28647221 -5.60264917 11.67449232 -5.6875 13.0625 C-5.74647461 14.11050781 -5.74647461 14.11050781 -5.80664062 15.1796875 C-6.13671875 20.4609375 -6.13671875 20.4609375 -7.25 22.6875 C-8.9 22.6875 -10.55 22.6875 -12.25 22.6875 C-12.58 17.0775 -12.91 11.4675 -13.25 5.6875 C-13.91 5.3575 -14.57 5.0275 -15.25 4.6875 C-15.25 3.3675 -15.25 2.0475 -15.25 0.6875 C-11.53400809 0.48663557 -10.47791555 0.5355563 -7.25 2.6875 C-6.71375 2.171875 -6.1775 1.65625 -5.625 1.125 C-3.25 -0.3125 -3.25 -0.3125 0 0 Z " fill="#4967D9" transform="translate(444.25,61.3125)"/>
<path d="M0 0 C2.54289914 4.73280824 3.72522589 9.77708874 5.125 14.9375 C5.40214844 15.92685547 5.67929687 16.91621094 5.96484375 17.93554688 C6.22652344 18.89396484 6.48820313 19.85238281 6.7578125 20.83984375 C6.9964502 21.70988037 7.23508789 22.57991699 7.48095703 23.47631836 C8.01131694 26.05502503 8.09358792 28.37512365 8 31 C11.80414907 28.46390062 12.90233748 25.41490849 14.6875 21.375 C15.16799805 20.31539062 15.16799805 20.31539062 15.65820312 19.234375 C16.44650556 17.49305023 17.22427913 15.74696589 18 14 C18.99 14.33 19.98 14.66 21 15 C18.5833588 22.86693838 16.08841153 28.2406918 10 34 C7 33 7 33 5 31 C4.875 28.375 4.875 28.375 5 26 C4.34 26 3.68 26 3 26 C0.57385524 17.17634256 -0.40411834 9.14504844 0 0 Z M22 11 C22.99 11 23.98 11 25 11 C25.33 12.32 25.66 13.64 26 15 C24.68 14.34 23.36 13.68 22 13 C22 12.34 22 11.68 22 11 Z " fill="#E0DFDC" transform="translate(569,111)"/>
<path d="M0 0 C-7.19838702 4.13907253 -12.93862736 4.34356211 -21 3 C-24.61153684 2.8583711 -27.53300291 3.08226548 -31 4 C-32.2375 4.061875 -33.475 4.12375 -34.75 4.1875 C-39.17204637 4.69334294 -41.5037566 6.70434399 -44.890625 9.44140625 C-52.22401704 14.85996815 -62.02500903 16.89576085 -71 17 C-74.32815481 16.11069548 -77.10370682 14.85424061 -80 13 C-76.78663616 11.92887872 -74.14838825 11.98112401 -70.79223633 12.06542969 C-60.07432357 12.33175441 -60.07432357 12.33175441 -50 9 C-49.35804688 8.67515625 -48.71609375 8.3503125 -48.0546875 8.015625 C-45.59267661 6.67645589 -43.33518713 5.30359931 -41.25390625 3.41845703 C-38.0856886 1.42459389 -35.47236321 1.48218565 -31.75 1.3046875 C-31.05487305 1.26691193 -30.35974609 1.22913635 -29.64355469 1.19021606 C-27.42947557 1.07212397 -25.21506212 0.97275165 -23 0.875 C-20.78525983 0.76667032 -18.57079384 0.65441627 -16.35644531 0.5383606 C-14.34737172 0.43471098 -12.33775086 0.34183641 -10.328125 0.24951172 C-7.14924977 0.11086556 -7.14924977 0.11086556 -4.734375 -0.58935547 C-3 -1 -3 -1 0 0 Z " fill="#EAEAEA" transform="translate(776,111)"/>
<path d="M0 0 C1.99965715 0.03703069 4.00056665 0.04760556 6 0 C6 0.66 6 1.32 6 2 C5.07251953 2.02916504 4.14503906 2.05833008 3.18945312 2.08837891 C-0.28611357 2.21126563 -3.75870816 2.35966705 -7.23242188 2.52490234 C-8.7294063 2.5909837 -10.22686404 2.64717605 -11.72460938 2.69287109 C-20.80691908 2.97745013 -27.10907232 3.57204604 -34 10 C-36.64453125 11.20703125 -36.64453125 11.20703125 -38.8125 11.8125 C-39.54082031 12.02519531 -40.26914062 12.23789063 -41.01953125 12.45703125 C-41.67308594 12.63621094 -42.32664062 12.81539062 -43 13 C-43.99 13.33 -44.98 13.66 -46 14 C-48.99621866 14.22373872 -51.99625668 14.18513857 -55 14.1875 C-55.81984375 14.19974609 -56.6396875 14.21199219 -57.484375 14.22460938 C-58.27328125 14.22654297 -59.0621875 14.22847656 -59.875 14.23046875 C-60.59429688 14.23457764 -61.31359375 14.23868652 -62.0546875 14.24291992 C-64 14 -64 14 -67 12 C-64 11 -64 11 -61.8125 11.4375 C-54.02050169 12.99589966 -44.9717181 12.55403539 -38.1875 8.19140625 C-36.7334375 7.13759766 -36.7334375 7.13759766 -35.25 6.0625 C-24.73258169 -1.39579793 -12.36648476 -2.19848618 0 0 Z " fill="#D7D7D7" transform="translate(763,110)"/>
<path d="M0 0 C2.30975559 -0.00219559 4.61903844 -0.02047513 6.92871094 -0.03930664 C16.56402873 -0.07426732 25.79430569 0.63682474 35.31152344 2.18530273 C34.98152344 2.84530273 34.65152344 3.50530273 34.31152344 4.18530273 C29.2456611 4.37566917 24.6036384 4.39899372 19.68652344 3.06030273 C15.85642461 2.09608205 13.29722728 2.48578262 9.47558594 3.66577148 C3.91363143 5.00104215 -2.13793979 4.48460232 -7.75097656 3.62280273 C-11.82410816 3.17023256 -15.32151325 3.43773531 -19.36425781 3.93920898 C-21.68847656 4.18530273 -21.68847656 4.18530273 -25.00097656 4.06030273 C-28.2880611 4.21319039 -30.03215027 5.31024888 -32.68847656 7.18530273 C-31.81347656 2.31030273 -31.81347656 2.31030273 -30.68847656 1.18530273 C-20.51496143 0.03752618 -10.22635698 -0.00108284 0 0 Z " fill="#E7E7E7" transform="translate(644.6884765625,110.814697265625)"/>
<path d="M0 0 C1.19665283 -0.00193359 2.39330566 -0.00386719 3.6262207 -0.00585938 C4.89167725 -0.00134766 6.15713379 0.00316406 7.4609375 0.0078125 C8.75153076 0.00974609 10.04212402 0.01167969 11.37182617 0.01367188 C21.55231287 0.05931007 31.68135687 0.42464747 41.8359375 1.1328125 C34.95773902 4.81756168 27.94548975 4.79327625 20.3359375 3.5703125 C16.63844871 3.1081264 13.59455726 3.43079007 9.921875 3.8828125 C5.24977623 4.26131164 0.58404898 4.14204598 -4.09912109 4.00756836 C-8.58655288 3.93338307 -11.95089094 4.71010384 -16.1640625 6.1328125 C-19.5390625 4.7578125 -19.5390625 4.7578125 -22.1640625 3.1328125 C-18.54117075 2.11840281 -14.88524628 1.65508391 -11.1640625 1.1328125 C-10.00704834 0.87395264 -10.00704834 0.87395264 -8.82666016 0.60986328 C-5.83548765 0.07394259 -3.0388069 0.00320985 0 0 Z " fill="#E3E3E3" transform="translate(173.1640625,110.8671875)"/>
<path d="M0 0 C0.66 0.33 1.32 0.66 2 1 C1.99476318 1.64960693 1.98952637 2.29921387 1.98413086 2.96850586 C1.96313497 5.95816043 1.9502687 8.94779941 1.9375 11.9375 C1.92912109 12.95908203 1.92074219 13.98066406 1.91210938 15.03320312 C1.89479187 20.45358273 2.05945036 25.71715553 2.80786133 31.08911133 C3.35848416 36.56525477 2.01651313 40.53556057 -1 45 C-1.309375 45.680625 -1.61875 46.36125 -1.9375 47.0625 C-4.28019849 51.33447961 -7.82037554 53.67798641 -12 56 C-12.33 55.34 -12.66 54.68 -13 54 C-7.25 49 -7.25 49 -5 49 C-0.65662595 35.25244551 -0.60864831 22.10971943 -1.05004883 7.77636719 C-1.00101289 5.05618824 -0.62150428 2.64297789 0 0 Z " fill="#E7E4DC" transform="translate(789,55)"/>
<path d="M0 0 C3 0.5 3 0.5 4.875 2.125 C6.33486373 5.20693454 6.49214954 7.12526031 6 10.5 C4.4375 12.9375 4.4375 12.9375 2 14.5 C-1.6875 14.375 -1.6875 14.375 -5 13.5 C-6.52846661 10.44306678 -6.23242445 7.87015453 -6 4.5 C-4.43993506 1.11985929 -3.69705317 0.61617553 0 0 Z " fill="#F4DA96" transform="translate(376,65.5)"/>
<path d="M0 0 C2.9375 0.375 2.9375 0.375 4.9375 2.375 C5.23828125 4.43359375 5.23828125 4.43359375 5.25 6.8125 C5.26675781 7.59496094 5.28351562 8.37742187 5.30078125 9.18359375 C4.9375 11.375 4.9375 11.375 3.64453125 13.171875 C1.9375 14.375 1.9375 14.375 -1.6875 14.1875 C-2.80125 13.919375 -3.915 13.65125 -5.0625 13.375 C-6.59096661 10.31806678 -6.29492445 7.74515453 -6.0625 4.375 C-4.47958703 0.94535524 -3.7833499 0.46326733 0 0 Z " fill="#F6DB95" transform="translate(555.0625,65.625)"/>
<path d="M0 0 C0.99 0.33 1.98 0.66 3 1 C12.35812609 1.43407406 21.67975206 0.79321259 31 0 C31 0.66 31 1.32 31 2 C29.11197917 2.1953125 27.22395833 2.390625 25.3359375 2.5859375 C22.86756016 2.95344614 22.86756016 2.95344614 20.1171875 4.0546875 C16.69114857 5.09366171 14.29934816 5.082205 10.75 4.75 C9.61820312 4.646875 8.48640625 4.54375 7.3203125 4.4375 C4.34540098 4.04551166 1.53585217 3.46213509 -1.375 2.75 C-6.11807549 1.6942832 -8.61313197 2.88780428 -13 5 C-16.47208084 5.39354481 -19.8104907 5.59475465 -23 4 C-23 3.34 -23 2.68 -23 2 C-23.99 1.67 -24.98 1.34 -26 1 C-24.86820312 1.01160156 -23.73640625 1.02320312 -22.5703125 1.03515625 C-21.08854331 1.04453454 -19.60677235 1.0536347 -18.125 1.0625 C-17.37863281 1.07087891 -16.63226563 1.07925781 -15.86328125 1.08789062 C-10.37494803 1.11261285 -5.56326851 -0.37455669 0 0 Z " fill="#E7E7E7" transform="translate(364,110)"/>
<path d="M0 0 C2.3125 0.8125 2.3125 0.8125 3.3125 1.8125 C3.4370486 3.45480364 3.48818524 5.10302276 3.5 6.75 C3.51417969 7.64589844 3.52835938 8.54179688 3.54296875 9.46484375 C3.3125 11.8125 3.3125 11.8125 1.3125 13.8125 C-1.6875 14.125 -1.6875 14.125 -4.6875 13.8125 C-7.16788907 10.0919164 -7.15087203 8.21453429 -6.6875 3.8125 C-4.59968756 0.71944453 -3.78638417 -0.26416634 0 0 Z " fill="#F2D997" transform="translate(676.6875,66.1875)"/>
<path d="M0 0 C3 0.3125 3 0.3125 6 1 C6.495 1.99 6.495 1.99 7 3 C6.13375 2.9175 5.2675 2.835 4.375 2.75 C0.16854092 3.06158956 -1.62295505 4.53757139 -5 7 C-10.99478443 10.46365323 -17.19873384 12.30034285 -24.125 11.75 C-28.80564607 12.05197717 -30.19207526 13.33798018 -33.359375 16.58984375 C-35.22011428 18.18919347 -36.60748307 18.58911122 -39 19 C-39 17 -39 17 -37.3203125 15.30859375 C-36.59585937 14.69113281 -35.87140625 14.07367188 -35.125 13.4375 C-34.04605469 12.50744141 -34.04605469 12.50744141 -32.9453125 11.55859375 C-29.75286041 9.00078575 -27.37548773 8.82732073 -23.3359375 8.50561523 C-14.8085146 7.78126048 -6.36365163 6.36365163 0 0 Z " fill="#E9E9E9" transform="translate(323,103)"/>
<path d="M0 0 C1.98 0.495 1.98 0.495 4 1 C4 8.59 4 16.18 4 24 C2.68 24.33 1.36 24.66 0 25 C-1.68516954 23.31483046 -1.13008019 21.21232212 -1.1328125 18.90625 C-1.13474609 17.36130859 -1.13474609 17.36130859 -1.13671875 15.78515625 C-1.13285156 14.70105469 -1.12898437 13.61695313 -1.125 12.5 C-1.12886719 11.41589844 -1.13273438 10.33179688 -1.13671875 9.21484375 C-1.13542969 8.18488281 -1.13414062 7.15492187 -1.1328125 6.09375 C-1.13168457 5.14177734 -1.13055664 4.18980469 -1.12939453 3.20898438 C-1 1 -1 1 0 0 Z " fill="#4362DC" transform="translate(762,50)"/>
<path d="M0 0 C7.59 0.33 15.18 0.66 23 1 C23.73588298 5.41529789 24.11130367 8.98267011 24.0625 13.375 C24.05347656 14.43460938 24.04445313 15.49421875 24.03515625 16.5859375 C24.02355469 17.38257813 24.01195313 18.17921875 24 19 C26.47291401 18.68574812 26.47291401 18.68574812 29 18 C30.10636395 15.60931266 30.10636395 15.60931266 31 13 C33.125 11.1875 33.125 11.1875 35 10 C34.33333333 11.33333333 33.66666667 12.66666667 33 14 C32.54625 15.03125 32.0925 16.0625 31.625 17.125 C29.95267372 20.08373111 29.14120461 20.916826 26 22 C22.84664106 19.55299347 22.05628099 18.33912904 21.390625 14.328125 C21.32467436 12.96954185 21.27827746 11.60988898 21.25 10.25 C21.22035156 9.55261719 21.19070312 8.85523437 21.16015625 8.13671875 C21.08981542 6.42509187 21.04260054 4.71254185 21 3 C20.07058594 3.10699219 19.14117187 3.21398437 18.18359375 3.32421875 C5.90509666 4.51493849 5.90509666 4.51493849 0 1 C0 0.67 0 0.34 0 0 Z " fill="#E4E3E3" transform="translate(52,111)"/>
<path d="M0 0 C0.70640625 0.44988281 1.4128125 0.89976563 2.140625 1.36328125 C2.67171875 1.80027344 3.2028125 2.23726563 3.75 2.6875 C3.75 3.3475 3.75 4.0075 3.75 4.6875 C4.9565625 4.873125 4.9565625 4.873125 6.1875 5.0625 C7.4559375 5.371875 7.4559375 5.371875 8.75 5.6875 C9.245 6.6775 9.245 6.6775 9.75 7.6875 C3.74366905 7.33418641 1.89458294 5.83208294 -2.25 1.6875 C-6.20065746 1.96875542 -8.63579713 3.46728995 -11.875 5.625 C-19.7073611 10.11756476 -28.42668183 10.15718658 -37.25 10.6875 C-36.92 10.0275 -36.59 9.3675 -36.25 8.6875 C-32.62861734 7.66476493 -29.18265244 7.57987768 -25.4375 7.625 C-24.46167969 7.63402344 -23.48585938 7.64304687 -22.48046875 7.65234375 C-21.74441406 7.66394531 -21.00835937 7.67554687 -20.25 7.6875 C-19.92 7.0275 -19.59 6.3675 -19.25 5.6875 C-17.29741237 4.60613421 -15.28840042 3.71053488 -13.2578125 2.78515625 C-11.19653291 1.78844172 -11.19653291 1.78844172 -9.7421875 0.12109375 C-6.29787685 -3.1879691 -3.74062978 -2.45911773 0 0 Z " fill="#D4D4D4" transform="translate(329.25,102.3125)"/>
<path d="M0 0 C10.11543287 -0.34880803 10.11543287 -0.34880803 14 2 C15.9271006 6.19598886 17 10.38369165 17 15 C19.69725519 13.11192137 21.13216429 11.80175356 23 9 C22.39664218 15.39559286 22.39664218 15.39559286 20.6875 18 C19 19 19 19 16.8125 18.6875 C16.214375 18.460625 15.61625 18.23375 15 18 C14.67 16.02 14.34 14.04 14 12 C13.34 12 12.68 12 12 12 C11.67 8.7 11.34 5.4 11 2 C7.37 1.67 3.74 1.34 0 1 C0 0.67 0 0.34 0 0 Z " fill="#DFDEDB" transform="translate(492,111)"/>
<path d="M0 0 C1.98 0 3.96 0 6 0 C6 1.32 6 2.64 6 4 C6.66386719 3.89300781 7.32773437 3.78601563 8.01171875 3.67578125 C15.30986444 2.68493811 15.30986444 2.68493811 18.875 4.3125 C19.57625 4.869375 20.2775 5.42625 21 6 C22.32349636 6.68598804 23.65560637 7.35592858 25 8 C9.47154472 8 9.47154472 8 5.9375 7.1875 C5.24527344 7.03667969 4.55304687 6.88585937 3.83984375 6.73046875 C2 6 2 6 0 3 C0 2.01 0 1.02 0 0 Z " fill="#E3E3E3" transform="translate(24,99)"/>
<path d="M0 0 C3 0.1875 3 0.1875 5 1.1875 C5.125 4.0625 5.125 4.0625 5 7.1875 C3 9.1875 3 9.1875 -0.5625 9.375 C-4 9.1875 -4 9.1875 -5 8.1875 C-5.1875 5.25 -5.1875 5.25 -5 2.1875 C-3 0.1875 -3 0.1875 0 0 Z " fill="#F5DB96" transform="translate(266,65.8125)"/>
<path d="M0 0 C3 0.25 3 0.25 5 2.25 C5.25 4.75 5.25 4.75 5 7.25 C3 9.25 3 9.25 -0.5625 9.4375 C-4 9.25 -4 9.25 -5 8.25 C-5.1875 5.3125 -5.1875 5.3125 -5 2.25 C-3 0.25 -3 0.25 0 0 Z " fill="#F6DC95" transform="translate(709,65.75)"/>
<path d="M0 0 C1.07314453 0.00322266 2.14628906 0.00644531 3.25195312 0.00976562 C4.37150391 0.01814453 5.49105469 0.02652344 6.64453125 0.03515625 C8.34125977 0.04192383 8.34125977 0.04192383 10.07226562 0.04882812 C12.86724052 0.06062127 15.66210945 0.07707975 18.45703125 0.09765625 C18.45703125 0.42765625 18.45703125 0.75765625 18.45703125 1.09765625 C14.48368348 1.74636609 10.90534201 2.12009618 6.8671875 1.91796875 C-1.67955316 1.28636402 -1.67955316 1.28636402 -9.04296875 4.97265625 C-13.05718846 9.25977247 -16.36925827 14.16848716 -19.54296875 19.09765625 C-20.20296875 18.76765625 -20.86296875 18.43765625 -21.54296875 18.09765625 C-19.45490278 13.46132556 -16.97949792 10.0234045 -13.54296875 6.28515625 C-12.67671875 5.32996094 -11.81046875 4.37476562 -10.91796875 3.390625 C-7.39397061 -0.0116561 -4.70184528 -0.02487749 0 0 Z " fill="#ECECEC" transform="translate(102.54296875,112.90234375)"/>
<path d="M0 0 C0 0.66 0 1.32 0 2 C-1.27875 1.97679688 -2.5575 1.95359375 -3.875 1.9296875 C-5.58332745 1.91091467 -7.29166127 1.89271611 -9 1.875 C-9.83917969 1.85824219 -10.67835938 1.84148437 -11.54296875 1.82421875 C-15.58027307 1.79292182 -19.14615296 1.91463042 -23.03125 3.0625 C-27.65152956 4.37212149 -31.80208217 3.79066588 -36.5 3.125 C-37.32242188 3.02058594 -38.14484375 2.91617188 -38.9921875 2.80859375 C-40.9965193 2.55222573 -42.99855097 2.27797903 -45 2 C-42.04497399 0.30757601 -39.90004978 -0.27328801 -36.5 -0.25 C-35.7471875 -0.25515625 -34.994375 -0.2603125 -34.21875 -0.265625 C-32 0 -32 0 -29.90625 1.06640625 C-27.87624721 2.32032108 -27.87624721 2.32032108 -25 1.1875 C-24.01 0.795625 -23.02 0.40375 -22 0 C-15.05935773 -2.31354742 -7.11091672 -0.81600684 0 0 Z " fill="#D3D3D3" transform="translate(186,110)"/>
<path d="M0 0 C0.6875 1.8125 0.6875 1.8125 1 4 C-0.71920833 6.43352729 -1.85410172 6.96532094 -4.77734375 7.66015625 C-6.34162109 7.85931641 -6.34162109 7.85931641 -7.9375 8.0625 C-11.7186844 8.55447567 -14.6850604 9.07493869 -18 11 C-17.5625 8.6875 -17.5625 8.6875 -16 6 C-13.84115709 4.97856399 -11.69534698 4.3418256 -9.3984375 3.69140625 C-6.11833919 2.74584045 -3.11353691 1.39115479 0 0 Z " fill="#C9C7C1" transform="translate(449,102)"/>
<path d="M0 0 C0.66 0 1.32 0 2 0 C5.22265625 5.2734375 5.22265625 5.2734375 6 7 C5.67 7.66 5.34 8.32 5 9 C2.525 8.505 2.525 8.505 0 8 C-3.60195161 12.28857364 -5.69405586 17.38168391 -8.0390625 22.41992188 C-8.95342464 24.31669983 -9.97053307 26.16314873 -11 28 C-11.99 28.33 -12.98 28.66 -14 29 C-14 28.34 -14 27.68 -14 27 C-13.34 26.67 -12.68 26.34 -12 26 C-10.99329255 24.10553272 -10.06672278 22.16820868 -9.1796875 20.21484375 C-8.64472656 19.04501953 -8.10976563 17.87519531 -7.55859375 16.66992188 C-6.99725905 15.42584296 -6.43606293 14.18170151 -5.875 12.9375 C-5.30657089 11.68918826 -4.73756757 10.44113782 -4.16796875 9.19335938 C-2.77296143 6.13143654 -1.38392949 3.06694187 0 0 Z " fill="#D5D2C9" transform="translate(591,113)"/>
<path d="M0 0 C0.33 0 0.66 0 1 0 C1.16435547 1.66675781 1.16435547 1.66675781 1.33203125 3.3671875 C2.18419296 11.51953449 3.14576521 19.2555096 6 27 C4.68 27.99 3.36 28.98 2 30 C2 27.36 2 24.72 2 22 C1.34 22 0.68 22 0 22 C-1.45747701 19.08504599 -1.13184681 16.49538627 -1.125 13.25 C-1.12757812 12.03828125 -1.13015625 10.8265625 -1.1328125 9.578125 C-1.01077361 6.29025367 -0.62341681 3.22593463 0 0 Z " fill="#E5E3DF" transform="translate(26,62)"/>
<path d="M0 0 C0.99 0.99 1.98 1.98 3 3 C1.85569823 6.87302138 0.76679902 10.00263439 -2 13 C-2.66 13 -3.32 13 -4 13 C-5.32 9.04 -6.64 5.08 -8 1 C-6.865625 1.020625 -5.73125 1.04125 -4.5625 1.0625 C-1.18424326 1.41577477 -1.18424326 1.41577477 0 0 Z " fill="#E5DBBF" transform="translate(447,66)"/>
<path d="M0 0 C0.83917969 0.10828125 0.83917969 0.10828125 1.6953125 0.21875 C11.38408344 1.34027976 21.37522295 1.83329087 31 0 C26.87734025 4.12265975 19.75442412 5.53237789 14 6 C9.11018048 5.5007806 4.54182579 3.81952959 0 2 C0 1.34 0 0.68 0 0 Z " fill="#E3E3E3" transform="translate(252,122)"/>
<path d="M0 0 C2.69515209 0.04682132 5.36875694 0.04327298 8.0625 0 C17.40737912 -0.08434352 26.67831432 0.3829617 36 1 C36 1.33 36 1.66 36 2 C35.43481155 2.00364563 34.86962311 2.00729126 34.28730774 2.01104736 C28.39823467 2.05289748 22.50993914 2.12226028 16.62133789 2.20751953 C14.42447694 2.2357239 12.22751461 2.25694107 10.03051758 2.27099609 C6.8700777 2.29243249 3.71085604 2.3390878 0.55078125 2.390625 C-0.42960617 2.39185364 -1.40999359 2.39308228 -2.42008972 2.39434814 C-6.89282614 2.49015353 -9.32493989 2.56453119 -13.15942383 5.03808594 C-13.76681396 5.68551758 -14.3742041 6.33294922 -15 7 C-13.60186993 3.62118566 -12.17112209 1.84982122 -9 0 C-5.37824817 -0.88695963 -3.56435101 -1.188117 0 0 Z " fill="#D4D4D4" transform="translate(104,110)"/>
<path d="M0 0 C2.79173055 -0.02690104 5.58320348 -0.04679053 8.375 -0.0625 C9.56609375 -0.07506836 9.56609375 -0.07506836 10.78125 -0.08789062 C16.7734375 -0.11328125 16.7734375 -0.11328125 19 1 C19 1.66 19 2.32 19 3 C20.98 3.66 22.96 4.32 25 5 C25 5.66 25 6.32 25 7 C26.98 7.66 28.96 8.32 31 9 C31 9.33 31 9.66 31 10 C28.69 10 26.38 10 24 10 C24 9.34 24 8.68 24 8 C23.01 8 22.02 8 21 8 C20.34 7.01 19.68 6.02 19 5 C16.94074861 4.27617533 16.94074861 4.27617533 15 4 C15 3.34 15 2.68 15 2 C14.25234375 2.02320312 13.5046875 2.04640625 12.734375 2.0703125 C11.74953125 2.08835937 10.7646875 2.10640625 9.75 2.125 C8.77546875 2.14820312 7.8009375 2.17140625 6.796875 2.1953125 C3.9803502 1.99862781 2.39050964 1.44568916 0 0 Z " fill="#DCDCDC" transform="translate(665,111)"/>
<path d="M0 0 C3.97221939 1.143276 7.80696229 1.49725988 11.91796875 1.83984375 C11.91796875 2.16984375 11.91796875 2.49984375 11.91796875 2.83984375 C9.64720033 2.866841 7.37634054 2.88623828 5.10546875 2.90234375 C3.20861328 2.91974609 3.20861328 2.91974609 1.2734375 2.9375 C-2.08203125 2.83984375 -2.08203125 2.83984375 -5.08203125 1.83984375 C-10.23146403 1.43810985 -10.23146403 1.43810985 -15.08203125 2.83984375 C-17.05840539 2.96212301 -19.03941435 3.01534304 -21.01953125 3.02734375 C-22.08042969 3.04152344 -23.14132812 3.05570312 -24.234375 3.0703125 C-27.08203125 2.83984375 -27.08203125 2.83984375 -30.08203125 0.83984375 C-29.09203125 0.50984375 -28.10203125 0.17984375 -27.08203125 -0.16015625 C-26.42203125 0.16984375 -25.76203125 0.49984375 -25.08203125 0.83984375 C-21.04042672 1.2440042 -18.18437473 0.54859943 -14.45703125 -0.84765625 C-9.06399502 -2.59126947 -5.32572474 -1.60529607 0 0 Z " fill="#D4D4D4" transform="translate(369.08203125,109.16015625)"/>
<path d="M0 0 C1.2533313 0.19057983 1.2533313 0.19057983 2.53198242 0.38500977 C7.35798494 0.96947374 12.1046288 1.18508915 16.96166992 1.17407227 C17.66236603 1.17305511 18.36306213 1.17203796 19.08499146 1.17098999 C21.24834788 1.16424711 23.41162302 1.15172249 25.57495117 1.13891602 C27.06648612 1.13388746 28.55802271 1.12932697 30.04956055 1.12524414 C33.6622258 1.11435405 37.2748275 1.09716538 40.88745117 1.07641602 C40.88745117 1.40641602 40.88745117 1.73641602 40.88745117 2.07641602 C36.07346337 3.321933 31.3639823 3.20330646 26.43041992 3.17407227 C25.52745682 3.17265732 24.62449371 3.17124237 23.69416809 3.16978455 C20.82106154 3.16420425 17.94803402 3.15165536 15.07495117 3.13891602 C13.12247834 3.13389847 11.17000429 3.12933601 9.2175293 3.12524414 C4.44080632 3.11424127 -0.33585787 3.09699019 -5.11254883 3.07641602 C-2.37661743 0.08596802 -2.37661743 0.08596802 0 0 Z " fill="#D4D4D4" transform="translate(525.112548828125,108.923583984375)"/>
<path d="M0 0 C1.19118483 3.57355448 0.59526539 5.48791817 -0.7890625 8.9296875 C-2.98780064 12.68882044 -6.21405275 14.95373473 -10 17 C-13.5 17.875 -13.5 17.875 -16 18 C-15.278125 17.443125 -14.55625 16.88625 -13.8125 16.3125 C-8.31128088 11.95774976 -8.31128088 11.95774976 -5 6 C-4.34 6 -3.68 6 -3 6 C-2.690625 5.195625 -2.38125 4.39125 -2.0625 3.5625 C-1 1 -1 1 0 0 Z " fill="#D0CFCA" transform="translate(786,93)"/>
<path d="M0 0 C1.18239258 0.02707031 1.18239258 0.02707031 2.38867188 0.0546875 C4.32214261 0.10155952 6.25498285 0.1732959 8.1875 0.25 C3.906933 3.10371133 0.32761427 2.1683922 -4.68359375 1.83203125 C-7.9714797 1.94854952 -7.9714797 1.94854952 -10.08203125 4.5234375 C-12.14235861 7.75193705 -12.14235861 7.75193705 -14.0625 11.0625 C-14.64 12.114375 -15.2175 13.16625 -15.8125 14.25 C-16.97733768 10.75548696 -16.31890626 9.39811009 -14.9921875 6.06640625 C-11.02625117 -0.04008512 -6.67337018 -0.29087615 0 0 Z " fill="#EDEDED" transform="translate(530.8125,112.75)"/>
<path d="M0 0 C2.72869407 0.03287583 5.2966618 0.56397771 8 1 C8.33 2.32 8.66 3.64 9 5 C5.52674819 6.1577506 2.63932552 6.06866652 -1 6 C-1.625 4.125 -1.625 4.125 -2 2 C-1.34 1.34 -0.68 0.68 0 0 Z " fill="#F1D897" transform="translate(263,86)"/>
<path d="M0 0 C2.72869407 0.03287583 5.2966618 0.56397771 8 1 C8.33 2.32 8.66 3.64 9 5 C5.52674819 6.1577506 2.63932552 6.06866652 -1 6 C-1.625 4.125 -1.625 4.125 -2 2 C-1.34 1.34 -0.68 0.68 0 0 Z " fill="#F4DA96" transform="translate(706,86)"/>
<path d="M0 0 C-0.85722656 0.14695312 -1.71445312 0.29390625 -2.59765625 0.4453125 C-9.11064232 1.72294449 -13.91431369 2.76804802 -18.53515625 7.6953125 C-20.29214549 9.26020425 -21.70937713 9.5960622 -24 10 C-24 8 -24 8 -22.3203125 6.30859375 C-21.59585937 5.69113281 -20.87140625 5.07367188 -20.125 4.4375 C-19.04605469 3.50744141 -19.04605469 3.50744141 -17.9453125 2.55859375 C-14.97919179 0.18212355 -12.85722597 -0.23738009 -9.125 -0.625 C-8.26132812 -0.72039062 -7.39765625 -0.81578125 -6.5078125 -0.9140625 C-4.09358507 -0.99679303 -2.29257465 -0.71443024 0 0 Z " fill="#E3E3E3" transform="translate(308,112)"/>
<path d="M0 0 C0.928125 0.20625 1.85625 0.4125 2.8125 0.625 C2.8125 1.945 2.8125 3.265 2.8125 4.625 C-0.14414519 6.1033226 -2.92979737 5.68532783 -6.1875 5.625 C-6.1875 4.305 -6.1875 2.985 -6.1875 1.625 C-3.1875 -0.375 -3.1875 -0.375 0 0 Z " fill="#EBD499" transform="translate(132.1875,74.375)"/>
<path d="M0 0 C3.125 0.25 3.125 0.25 5 1.625 C6.125 3.25 6.125 3.25 6.125 5.25 C2.495 5.25 -1.135 5.25 -4.875 5.25 C-3.64166667 0.31666667 -3.64166667 0.31666667 0 0 Z " fill="#E1CD9D" transform="translate(739.875,65.75)"/>
<path d="M0 0 C3.0625 0.1875 3.0625 0.1875 5.0625 2.1875 C5.0625 3.1775 5.0625 4.1675 5.0625 5.1875 C1.4325 5.1875 -2.1975 5.1875 -5.9375 5.1875 C-3.45398352 0.22046703 -3.45398352 0.22046703 0 0 Z " fill="#E2CE9D" transform="translate(201.9375,65.8125)"/>
<path d="M0 0 C3.93260944 -0.07421454 7.86494722 -0.12863136 11.7980957 -0.16479492 C13.79327701 -0.18728333 15.78826213 -0.22540198 17.78320312 -0.26367188 C19.03681641 -0.27333984 20.29042969 -0.28300781 21.58203125 -0.29296875 C22.73936768 -0.3086792 23.8967041 -0.32438965 25.08911133 -0.34057617 C28 0 28 0 29.90112305 1.51831055 C30.26375244 2.00726807 30.62638184 2.49622559 31 3 C29.33388095 3.042721 27.66617115 3.04063832 26 3 C25.67 2.67 25.34 2.34 25 2 C23.14630389 1.91262355 21.28932459 1.89301847 19.43359375 1.90234375 C18.30888672 1.90556641 17.18417969 1.90878906 16.02539062 1.91210938 C14.24938477 1.92467773 14.24938477 1.92467773 12.4375 1.9375 C11.24962891 1.94201172 10.06175781 1.94652344 8.83789062 1.95117188 C5.89187774 1.96300325 2.94596319 1.97948713 0 2 C0 1.34 0 0.68 0 0 Z " fill="#EAEAEA" transform="translate(399,113)"/>
<path d="M0 0 C3.0625 0.125 3.0625 0.125 5.0625 1.125 C4.7325 2.445 4.4025 3.765 4.0625 5.125 C1.0925 5.125 -1.8775 5.125 -4.9375 5.125 C-3.69556452 0.15725806 -3.69556452 0.15725806 0 0 Z " fill="#F0D897" transform="translate(297.9375,65.875)"/>
<path d="M0 0 C-8.87921631 4.61543422 -20.21796688 3.10922866 -30 3 C-30.33 2.34 -30.66 1.68 -31 1 C-27.7085344 0.82920355 -24.4168034 0.66414653 -21.125 0.5 C-19.74828125 0.42845703 -19.74828125 0.42845703 -18.34375 0.35546875 C-12.22342541 0.05376261 -6.12743647 -0.05995861 0 0 Z " fill="#EBEBEB" transform="translate(194,112)"/>
<path d="M0 0 C-6.625 0.125 -6.625 0.125 -10 -1 C-12.39490986 -1.06970052 -14.79167691 -1.08448003 -17.1875 -1.0625 C-18.45980469 -1.05347656 -19.73210937 -1.04445313 -21.04296875 -1.03515625 C-22.01878906 -1.02355469 -22.99460937 -1.01195313 -24 -1 C-15.70995437 -6.52669709 -8.44101531 -4.5177265 0 0 Z " fill="#D4D4D4" transform="translate(405,112)"/>
<path d="M0 0 C0.66 1.32 1.32 2.64 2 4 C1 5 1 5 -1.06640625 5.09765625 C-1.89011719 5.08605469 -2.71382812 5.07445313 -3.5625 5.0625 C-4.38878906 5.05347656 -5.21507812 5.04445313 -6.06640625 5.03515625 C-6.70449219 5.02355469 -7.34257813 5.01195313 -8 5 C-7.625 3.0625 -7.625 3.0625 -7 1 C-4.53721199 -0.231394 -2.7204945 -0.07159196 0 0 Z " fill="#F0D898" transform="translate(649,66)"/>
<path d="M0 0 C0.66 0.33 1.32 0.66 2 1 C-1.08148321 6.61270155 -4.32294778 11.55680039 -9 16 C-9 11.86002304 -6.83167083 9.54392969 -4.5 6.3125 C-4.07074219 5.70599609 -3.64148438 5.09949219 -3.19921875 4.47460938 C-2.13906862 2.97861974 -1.07034429 1.488713 0 0 Z " fill="#CFCDC8" transform="translate(88,114)"/>
<path d="M0 0 C0 0.66 0 1.32 0 2 C-11.54716981 6 -11.54716981 6 -17 6 C-11.87245057 1.19292241 -6.87081055 0 0 0 Z " fill="#E4E4E4" transform="translate(448,110)"/>
<path d="M0 0 C0.67804687 0.144375 1.35609375 0.28875 2.0546875 0.4375 C8.46292384 1.715597 14.47196016 2.25489093 21 2 C21.33 2.66 21.66 3.32 22 4 C14.58165418 4.09377123 7.33763707 4.17402193 0 3 C0 2.01 0 1.02 0 0 Z " fill="#D3D3D3" transform="translate(52,108)"/>
<path d="M0 0 C0.33 0 0.66 0 1 0 C0.88490339 1.41750563 0.75746342 2.83401169 0.625 4.25 C0.55539062 5.03890625 0.48578125 5.8278125 0.4140625 6.640625 C-0.0188622 9.10747896 -0.81447122 10.8099392 -2 13 C-2.33 13.99 -2.66 14.98 -3 16 C-3.66 15.67 -4.32 15.34 -5 15 C-5 13.02 -5 11.04 -5 9 C-4.01 8.67 -3.02 8.34 -2 8 C-1.855625 6.865625 -1.71125 5.73125 -1.5625 4.5625 C-1 1 -1 1 0 0 Z " fill="#E7E7E7" transform="translate(611,118)"/>
<path d="M0 0 C1.32 0 2.64 0 4 0 C4 0.66 4 1.32 4 2 C2.33333333 3.66666667 0.66666667 5.33333333 -1 7 C-2.75264204 9.28317152 -4.37027685 11.62526056 -6 14 C-6.33 13.34 -6.66 12.68 -7 12 C-6.07421875 9.6875 -6.07421875 9.6875 -4.6875 7 C-4.23761719 6.113125 -3.78773438 5.22625 -3.32421875 4.3125 C-2 2 -2 2 0 0 Z " fill="#EEEEEE" transform="translate(233,113)"/>
<path d="M0 0 C0.66 0 1.32 0 2 0 C5.22265625 5.2734375 5.22265625 5.2734375 6 7 C5.67 7.66 5.34 8.32 5 9 C3.576875 8.4740625 3.576875 8.4740625 2.125 7.9375 C-0.87060172 6.64973223 -0.87060172 6.64973223 -3 8 C-1.125 2.25 -1.125 2.25 0 0 Z " fill="#CBC8C1" transform="translate(591,113)"/>
<path d="M0 0 C1.051875 0.309375 2.10375 0.61875 3.1875 0.9375 C9.03089403 2.42203794 15.00134801 2.65251711 21 3 C18.53207332 5.46792668 17.45495701 5.69024523 14 6 C10.44921875 5.22265625 10.44921875 5.22265625 6.6875 4.0625 C5.43324219 3.68222656 4.17898438 3.30195312 2.88671875 2.91015625 C1.93410156 2.60980469 0.98148438 2.30945313 0 2 C0 1.34 0 0.68 0 0 Z " fill="#ECECEC" transform="translate(252,122)"/>
<path d="M0 0 C0.66 0.33 1.32 0.66 2 1 C-3.16216577 4.75430238 -6.56014376 6.67081836 -13 6 C-11 3 -11 3 -8.90625 2.3046875 C-8.1121875 2.16289063 -7.318125 2.02109375 -6.5 1.875 C-3.14280543 1.26373364 -3.14280543 1.26373364 0 0 Z " fill="#C9C5BB" transform="translate(775,94)"/>
<path d="M0 0 C0.66 0 1.32 0 2 0 C2.43355981 4.62463797 1.28581149 8.97396166 -1 13 C-1.99 13.33 -2.98 13.66 -4 14 C-3.52372025 12.04096255 -3.04388577 10.08278903 -2.5625 8.125 C-2.29566406 7.03445312 -2.02882813 5.94390625 -1.75390625 4.8203125 C-1 2 -1 2 0 0 Z " fill="#DCD9D1" transform="translate(610,113)"/>
<path d="M0 0 C0.66 0.33 1.32 0.66 2 1 C1.401875 1.886875 0.80375 2.77375 0.1875 3.6875 C-1.12192557 5.67034443 -2.38864099 7.68400814 -3.5625 9.75 C-5 12 -5 12 -8 14 C-6.58465326 9.16423199 -4.6634683 5.24490261 -2 1 C-1.34 0.67 -0.68 0.34 0 0 Z " fill="#D3D1CC" transform="translate(230,112)"/>
<path d="M0 0 C0.99 0 1.98 0 3 0 C0.69719111 5.37322074 -2.97266277 8.20703487 -8 11 C-8.33 10.34 -8.66 9.68 -9 9 C-3.25 4 -3.25 4 -1 4 C-0.67 2.68 -0.34 1.36 0 0 Z " fill="#EAEAEA" transform="translate(785,100)"/>
<path d="M0 0 C1.65 0.33 3.3 0.66 5 1 C4.67 2.65 4.34 4.3 4 6 C2.35 5.67 0.7 5.34 -1 5 C-0.67 3.35 -0.34 1.7 0 0 Z " fill="#4262DC" transform="translate(762,78)"/>
<path d="M0 0 C0.33 0 0.66 0 1 0 C1.81312365 5.51673123 2.32045927 10.49808636 1 16 C0.01 16.99 -0.98 17.98 -2 19 C-1.34 12.73 -0.68 6.46 0 0 Z " fill="#EBEBEB" transform="translate(790,79)"/>
<path d="M0 0 C0 0.99 0 1.98 0 3 C-0.66 3.66 -1.32 4.32 -2 5 C-2.28875 5.825 -2.5775 6.65 -2.875 7.5 C-4 10 -4 10 -6.125 11.3125 C-7.053125 11.6528125 -7.053125 11.6528125 -8 12 C-8.66 11.01 -9.32 10.02 -10 9 C-9.21625 8.938125 -8.4325 8.87625 -7.625 8.8125 C-6.325625 8.4103125 -6.325625 8.4103125 -5 8 C-3.81608777 5.62374655 -3.81608777 5.62374655 -3 3 C-1.375 1.1875 -1.375 1.1875 0 0 Z " fill="#DBDBDA" transform="translate(86,121)"/>
<path d="M0 0 C0.94875 0.37125 1.8975 0.7425 2.875 1.125 C3.57625 1.41375 4.2775 1.7025 5 2 C5 2.33 5 2.66 5 3 C2.03 3 -0.94 3 -4 3 C-4 2.01 -4 1.02 -4 0 C-6.31 0 -8.62 0 -11 0 C-11 -0.33 -11 -0.66 -11 -1 C-6.66605943 -2.2746884 -4.15689265 -1.64543667 0 0 Z " fill="#D9D9D9" transform="translate(44,104)"/>
<path d="M0 0 C0.66 0.33 1.32 0.66 2 1 C1.01 1.33 0.02 1.66 -1 2 C-1.87796879 4.0032149 -1.87796879 4.0032149 -2.4375 6.375 C-3.37483116 9.51107074 -3.75826144 10.77207508 -6.1875 13.0625 C-6.785625 13.371875 -7.38375 13.68125 -8 14 C-6.58465326 9.16423199 -4.6634683 5.24490261 -2 1 C-1.34 0.67 -0.68 0.34 0 0 Z " fill="#D2D0CB" transform="translate(518,112)"/>
<path d="M0 0 C0.33 0.66 0.66 1.32 1 2 C0.01 2.99 -0.98 3.98 -2 5 C-2.33 4.34 -2.66 3.68 -3 3 C-2.34 3 -1.68 3 -1 3 C-0.67 2.01 -0.34 1.02 0 0 Z M-5 5 C-4.34 5.33 -3.68 5.66 -3 6 C-6.60957611 9.2910841 -9.12637153 10.54663921 -14 11 C-8.30379747 6.25316456 -8.30379747 6.25316456 -5 5 Z " fill="#D9D9D9" transform="translate(784,100)"/>
<path d="M0 0 C0.33 0.99 0.66 1.98 1 3 C-0.8125 5.6875 -0.8125 5.6875 -3 8 C-3.66 8 -4.32 8 -5 8 C-5.33 6.35 -5.66 4.7 -6 3 C-5.38125 2.87625 -4.7625 2.7525 -4.125 2.625 C-1.80879168 2.12802644 -1.80879168 2.12802644 0 0 Z " fill="#E1E1E1" transform="translate(226,122)"/>
<path d="M0 0 C4.43090471 1.20842856 6.98112756 2.51668565 10 6 C8.5164999 5.57742724 7.03823576 5.13643678 5.5625 4.6875 C4.73878906 4.44386719 3.91507813 4.20023438 3.06640625 3.94921875 C2.04353516 3.47935547 2.04353516 3.47935547 1 3 C0.67 2.01 0.34 1.02 0 0 Z " fill="#D3CAB2" transform="translate(768,53)"/>
<path d="M0 0 C1.5625 1.25 1.5625 1.25 3 3 C2.6875 5.1875 2.6875 5.1875 2 7 C0.68 6.34 -0.64 5.68 -2 5 C-1.34 3.35 -0.68 1.7 0 0 Z " fill="#C9C5BC" transform="translate(447,66)"/>
<path d="M0 0 C1.32 0 2.64 0 4 0 C3.67 1.65 3.34 3.3 3 5 C1.68 4.34 0.36 3.68 -1 3 C-0.67 2.01 -0.34 1.02 0 0 Z " fill="#D6CCB1" transform="translate(63,63)"/>
<path d="M0 0 C0.33 0.66 0.66 1.32 1 2 C0.00390625 3.9453125 0.00390625 3.9453125 -1.4375 6.125 C-1.91058594 6.84945312 -2.38367188 7.57390625 -2.87109375 8.3203125 C-3.24363281 8.87460938 -3.61617187 9.42890625 -4 10 C-4.33 9.34 -4.66 8.68 -5 8 C-3.62292893 4.85240898 -2.43840236 2.43840236 0 0 Z " fill="#EBEBEB" transform="translate(588,129)"/>
<path d="M0 0 C0.99 0 1.98 0 3 0 C3 0.66 3 1.32 3 2 C4.98 2.66 6.96 3.32 9 4 C9 4.33 9 4.66 9 5 C6.69 5 4.38 5 2 5 C2 3.68 2 2.36 2 1 C1.34 0.67 0.68 0.34 0 0 Z " fill="#D8D8D8" transform="translate(687,116)"/>
<path d="M0 0 C1.65 0 3.3 0 5 0 C5 0.99 5 1.98 5 3 C4.01 3.66 3.02 4.32 2 5 C1.34 3.35 0.68 1.7 0 0 Z " fill="#C8C5BC" transform="translate(439,67)"/>
<path d="M0 0 C1.98 0.99 1.98 0.99 4 2 C3.34 3.32 2.68 4.64 2 6 C1.34 6 0.68 6 0 6 C0 4.02 0 2.04 0 0 Z " fill="#D1CBBB" transform="translate(772,64)"/>
<path d="M0 0 C2.52588702 2.36292656 3.88820837 3.66462511 5 7 C3.68 7 2.36 7 1 7 C0.67 4.69 0.34 2.38 0 0 Z " fill="#D8D4C9" transform="translate(600,127)"/>
<path d="M0 0 C3.96 0.33 7.92 0.66 12 1 C8 3 8 3 5 3 C3.31763529 2.37400383 1.6476038 1.71247732 0 1 C0 0.67 0 0.34 0 0 Z " fill="#E9E9E9" transform="translate(151,113)"/>
<path d="M0 0 C0.99 0.33 1.98 0.66 3 1 C3 2.32 3 3.64 3 5 C1.0625 4.6875 1.0625 4.6875 -1 4 C-1.33 3.01 -1.66 2.02 -2 1 C-1.34 0.67 -0.68 0.34 0 0 Z " fill="#CAC3B5" transform="translate(372,75)"/>
</svg>
